<svg width="24" height="24" viewBox="0 0 24 24" fill="none" xmlns="http://www.w3.org/2000/svg">
<path fill-rule="evenodd" clip-rule="evenodd" d="M7.35918 1C7.77134 1 8.09519 1.32755 8.09519 1.72254C8.09519 2.01156 8.34053 2.24277 8.63494 2.24277H9.60648C11.0883 2.25241 12.2954 3.43738 12.3052 4.88247C12.3052 4.98356 12.3872 5.06549 12.4882 5.06575C13.3596 5.06799 14.2314 5.08541 15.1119 5.09441C17.7458 5.09441 19.8279 6.54689 20.636 8.75636C21.0362 9.85061 20.008 10.7983 18.8463 10.7088L18.3132 10.6677C17.464 10.6022 16.6184 10.8329 15.9202 11.3206C15.3906 11.6904 14.9642 12.2002 14.6901 12.7851C14.3247 13.5647 14.2337 14.4561 14.4408 15.2918L14.6967 16.3247C14.9604 17.3886 14.7487 18.5146 14.1166 19.4101C13.4156 20.4033 12.2793 20.9998 11.0637 21C11.0457 21 11.0278 21 11.0098 21C9.63592 21 8.25221 20.9904 6.88813 20.9615C3.48283 20.9615 1 18.5337 1 15.1811V10.8748C1 7.52216 3.48283 5.09441 6.89794 5.09441C8.13089 5.07593 9.39093 5.05745 10.6694 5.05597C10.7598 5.05587 10.8332 4.98255 10.8332 4.8921C10.8332 4.22736 10.2738 3.68786 9.60648 3.68786H8.63494C7.52601 3.68786 6.62316 2.80154 6.62316 1.72254C6.62316 1.32755 6.95682 1 7.35918 1ZM7.34936 11.289C7.34936 10.894 7.67321 10.5665 8.08538 10.5665C8.48773 10.5665 8.82139 10.894 8.82139 11.289V12.3006H9.85182C10.2542 12.3006 10.5878 12.6281 10.5878 13.0231C10.5878 13.4277 10.2542 13.7457 9.85182 13.7457H8.82139V14.7669C8.82139 15.1618 8.48773 15.4894 8.08538 15.4894C7.67321 15.4894 7.34936 15.1618 7.34936 14.7669V13.7457H6.30913C5.90677 13.7457 5.57311 13.4277 5.57311 13.0231C5.57311 12.6281 5.90677 12.3006 6.30913 12.3006H7.34936V11.289ZM14.0226 10.6724H14.1207C14.5231 10.6724 14.8567 11 14.8567 11.395C14.8567 11.7996 14.5231 12.1175 14.1207 12.1175H14.0226C13.6104 12.1175 13.2866 11.7996 13.2866 11.395C13.2866 11 13.6104 10.6724 14.0226 10.6724Z" fill="#9CA6ED"/>
<path opacity="0.4" d="M19 19C16.8427 19 15 19.3985 15 20.9927C15 22.5874 16.8312 23 19 23C21.1573 23 23 22.6021 23 21.0073C23 19.4126 21.1693 19 19 19Z" fill="#9CA6ED"/>
<path opacity="0.4" d="M19 18C20.6655 18 22 16.665 22 15C22 13.335 20.6655 12 19 12C17.335 12 16 13.335 16 15C16 16.665 17.335 18 19 18Z" fill="#9CA6ED"/>
</svg>
