<svg width="163" height="66" viewBox="0 0 163 66" fill="none" xmlns="http://www.w3.org/2000/svg">
<path d="M157.741 33.6772L154.26 42.8507C153.807 44.043 152.759 44.8812 151.538 45.0715L151.844 46.1891C152.458 48.434 150.789 50.6548 148.485 50.6548H143.126C141.581 50.6548 140.22 49.6251 139.783 48.1257L139.241 46.2662L138.434 48.3931C137.918 49.7552 136.623 50.6548 135.182 50.6548H129.895C128.827 50.6548 127.903 50.1803 127.276 49.4541C126.627 50.202 125.679 50.6548 124.657 50.6548H105.65C104.582 50.6548 103.659 50.1815 103.031 49.4553C102.382 50.2032 101.434 50.6548 100.413 50.6548H81.4297C80.3617 50.6548 79.4379 50.1815 78.8092 49.4553C78.1603 50.2032 77.2138 50.6548 76.1911 50.6548H70.4369C69.2428 50.6548 68.1331 50.0358 67.4926 49.0157L66.2437 47.0201L65.7222 48.3931C65.2055 49.7552 63.9113 50.6548 62.4695 50.6548H57.1844C56.12 50.6548 55.1997 50.1851 54.5723 49.4637C53.9246 50.1767 53.0019 50.6042 52.0065 50.6042H47.4156L41.4698 59.4778C39.3469 62.6453 34.4512 60.7388 34.9751 56.9487L35.8537 50.6042H33.4821C32.2581 50.6042 31.2247 49.9828 30.608 49.0723C29.9734 50.0466 28.8875 50.6548 27.7005 50.6548H8.71767C6.27338 50.6548 4.58869 48.1751 5.46377 45.8664L9.70587 34.6804L9.67134 34.6371C7.82115 32.3332 9.44155 28.89 12.3764 28.89H29.0828C28.859 28.3203 28.7756 27.6904 28.8637 27.0533L31.2497 9.77704C31.4973 7.99221 33.0058 6.66382 34.7881 6.66382H55.5736C57.6761 6.66382 59.2299 8.45227 59.1453 10.425C59.1811 10.4226 59.218 10.4226 59.2537 10.4226H76.9197C77.515 10.4226 78.0663 10.5695 78.5449 10.826C79.0211 10.5707 79.5736 10.4226 80.182 10.4226H99.0648C99.6506 10.4226 100.192 10.5647 100.666 10.8128C101.148 10.5611 101.692 10.4226 102.26 10.4226H120.349C122.795 10.4226 124.479 12.9047 123.601 15.2134L122.635 17.7486C122.117 19.1095 120.825 20.0067 119.384 20.0067H115.239L111.871 28.89H130.242C130.848 28.89 131.407 29.0429 131.892 29.3067C132.373 29.0441 132.935 28.89 133.554 28.89H154.488C156.933 28.89 158.617 31.3697 157.741 33.6772Z" fill="url(#paint0_linear_21_898)"/>
<path d="M157.741 33.7483L154.26 42.9218C153.807 44.1141 152.759 44.9523 151.538 45.1426L151.844 46.2602C152.458 48.5051 150.789 50.7259 148.485 50.7259H143.126C141.581 50.7259 140.22 49.6962 139.783 48.1968L139.241 46.3373L138.434 48.4642C137.918 49.8263 136.623 50.7259 135.182 50.7259H129.895C128.827 50.7259 127.903 50.2514 127.276 49.5252C126.627 50.2731 125.679 50.7259 124.657 50.7259H105.65C104.582 50.7259 103.659 50.2526 103.031 49.5264C102.382 50.2743 101.434 50.7259 100.413 50.7259H81.4297C80.3617 50.7259 79.4379 50.2526 78.8092 49.5264C78.1603 50.2743 77.2138 50.7259 76.1911 50.7259H70.4369C69.2428 50.7259 68.1331 50.1069 67.4926 49.0868L66.2437 47.0912L65.7222 48.4642C65.2055 49.8263 63.9113 50.7259 62.4695 50.7259H57.1844C56.12 50.7259 55.1997 50.2562 54.5723 49.5348C53.9246 50.2478 53.0019 50.6754 52.0065 50.6754H47.4156L41.4698 59.549C39.3469 62.7164 34.4512 60.8099 34.9751 57.0198L35.8537 50.6754H33.4821C32.2581 50.6754 31.2247 50.0539 30.608 49.1434C29.9734 50.1177 28.8875 50.7259 27.7005 50.7259H8.71767C6.27338 50.7259 4.58869 48.2462 5.46377 45.9375L9.70587 34.7515L9.67134 34.7082C7.82115 32.4043 9.44155 28.9611 12.3764 28.9611H29.0828C28.859 28.3914 28.7756 27.7615 28.8637 27.1244L31.2497 9.84815C31.4973 8.06331 33.0058 6.73492 34.7881 6.73492H55.5736C57.6761 6.73492 59.2299 8.52337 59.1453 10.4961C59.1811 10.4937 59.218 10.4937 59.2537 10.4937H76.9197C77.515 10.4937 78.0663 10.6406 78.5449 10.8971C79.0211 10.6418 79.5736 10.4937 80.182 10.4937H99.0648C99.6506 10.4937 100.192 10.6358 100.666 10.8839C101.148 10.6322 101.692 10.4937 102.26 10.4937H120.349C122.795 10.4937 124.479 12.9758 123.601 15.2846L122.635 17.8197C122.117 19.1806 120.825 20.0778 119.384 20.0778H115.239L111.871 28.9611H130.242C130.848 28.9611 131.407 29.114 131.892 29.3778C132.373 29.1152 132.935 28.9611 133.554 28.9611H154.488C156.933 28.9611 158.617 31.4408 157.741 33.7483Z" fill="url(#paint1_linear_21_898)"/>
<path d="M157.741 33.8194L154.26 42.9929C153.807 44.1852 152.759 45.0234 151.538 45.2137L151.844 46.3313C152.458 48.5762 150.789 50.797 148.485 50.797H143.126C141.581 50.797 140.22 49.7673 139.783 48.2679L139.241 46.4084L138.434 48.5353C137.918 49.8974 136.623 50.797 135.182 50.797H129.895C128.827 50.797 127.903 50.3225 127.276 49.5963C126.627 50.3442 125.679 50.797 124.657 50.797H105.65C104.582 50.797 103.659 50.3237 103.031 49.5975C102.382 50.3454 101.434 50.797 100.413 50.797H81.4297C80.3617 50.797 79.4379 50.3237 78.8092 49.5975C78.1603 50.3454 77.2138 50.797 76.1911 50.797H70.4369C69.2428 50.797 68.1331 50.178 67.4926 49.1579L66.2437 47.1623L65.7222 48.5353C65.2055 49.8974 63.9113 50.797 62.4695 50.797H57.1844C56.12 50.797 55.1997 50.3274 54.5723 49.6059C53.9246 50.3189 53.0019 50.7465 52.0065 50.7465H47.4156L41.4698 59.6201C39.3469 62.7875 34.4512 60.881 34.9751 57.0909L35.8537 50.7465H33.4821C32.2581 50.7465 31.2247 50.125 30.608 49.2145C29.9734 50.1889 28.8875 50.797 27.7005 50.797H8.71767C6.27338 50.797 4.58869 48.3173 5.46377 46.0086L9.70587 34.8226L9.67134 34.7793C7.82115 32.4754 9.44155 29.0322 12.3764 29.0322H29.0828C28.859 28.4625 28.7756 27.8326 28.8637 27.1955L31.2497 9.91926C31.4973 8.13442 33.0058 6.80603 34.7881 6.80603H55.5736C57.6761 6.80603 59.2299 8.59448 59.1453 10.5672C59.1811 10.5648 59.218 10.5648 59.2537 10.5648H76.9197C77.515 10.5648 78.0663 10.7117 78.5449 10.9682C79.0211 10.7129 79.5736 10.5648 80.182 10.5648H99.0648C99.6506 10.5648 100.192 10.7069 100.666 10.955C101.148 10.7033 101.692 10.5648 102.26 10.5648H120.349C122.795 10.5648 124.479 13.0469 123.601 15.3557L122.635 17.8908C122.117 19.2517 120.825 20.1489 119.384 20.1489H115.239L111.871 29.0322H130.242C130.848 29.0322 131.407 29.1851 131.892 29.4489C132.373 29.1863 132.935 29.0322 133.554 29.0322H154.488C156.933 29.0322 158.617 31.5119 157.741 33.8194Z" fill="url(#paint2_linear_21_898)"/>
<path d="M157.741 33.8905L154.26 43.064C153.807 44.2563 152.759 45.0945 151.538 45.2848L151.844 46.4025C152.458 48.6473 150.789 50.8682 148.485 50.8682H143.126C141.581 50.8682 140.22 49.8384 139.783 48.339L139.241 46.4795L138.434 48.6064C137.918 49.9685 136.623 50.8682 135.182 50.8682H129.895C128.827 50.8682 127.903 50.3936 127.276 49.6674C126.627 50.4153 125.679 50.8682 124.657 50.8682H105.65C104.582 50.8682 103.659 50.3948 103.031 49.6686C102.382 50.4165 101.434 50.8682 100.413 50.8682H81.4297C80.3617 50.8682 79.4379 50.3948 78.8092 49.6686C78.1603 50.4165 77.2138 50.8682 76.1911 50.8682H70.4369C69.2428 50.8682 68.1331 50.2491 67.4926 49.229L66.2437 47.2334L65.7222 48.6064C65.2055 49.9685 63.9113 50.8682 62.4695 50.8682H57.1844C56.12 50.8682 55.1997 50.3985 54.5723 49.6771C53.9246 50.39 53.0019 50.8176 52.0065 50.8176H47.4156L41.4698 59.6912C39.3469 62.8586 34.4512 60.9521 34.9751 57.162L35.8537 50.8176H33.4821C32.2581 50.8176 31.2247 50.1961 30.608 49.2856C29.9734 50.26 28.8875 50.8682 27.7005 50.8682H8.71767C6.27338 50.8682 4.58869 48.3884 5.46377 46.0797L9.70587 34.8938L9.67134 34.8504C7.82115 32.5465 9.44155 29.1033 12.3764 29.1033H29.0828C28.859 28.5336 28.7756 27.9038 28.8637 27.2667L31.2497 9.99036C31.4973 8.20553 33.0058 6.87714 34.7881 6.87714H55.5736C57.6761 6.87714 59.2299 8.66558 59.1453 10.6383C59.1811 10.6359 59.218 10.6359 59.2537 10.6359H76.9197C77.515 10.6359 78.0663 10.7828 78.5449 11.0393C79.0211 10.784 79.5736 10.6359 80.182 10.6359H99.0648C99.6506 10.6359 100.192 10.778 100.666 11.0261C101.148 10.7744 101.692 10.6359 102.26 10.6359H120.349C122.795 10.6359 124.479 13.118 123.601 15.4268L122.635 17.9619C122.117 19.3228 120.825 20.22 119.384 20.22H115.239L111.871 29.1033H130.242C130.848 29.1033 131.407 29.2562 131.892 29.52C132.373 29.2574 132.935 29.1033 133.554 29.1033H154.488C156.933 29.1033 158.617 31.583 157.741 33.8905Z" fill="url(#paint3_linear_21_898)"/>
<path d="M157.741 33.9615L154.26 43.135C153.807 44.3273 152.759 45.1655 151.538 45.3558L151.844 46.4734C152.458 48.7183 150.789 50.9391 148.485 50.9391H143.126C141.581 50.9391 140.22 49.9094 139.783 48.41L139.241 46.5505L138.434 48.6773C137.918 50.0395 136.623 50.9391 135.182 50.9391H129.895C128.827 50.9391 127.903 50.4646 127.276 49.7384C126.627 50.4863 125.679 50.9391 124.657 50.9391H105.65C104.582 50.9391 103.659 50.4658 103.031 49.7396C102.382 50.4875 101.434 50.9391 100.413 50.9391H81.4297C80.3617 50.9391 79.4379 50.4658 78.8092 49.7396C78.1603 50.4875 77.2138 50.9391 76.1911 50.9391H70.4369C69.2428 50.9391 68.1331 50.3201 67.4926 49.3L66.2437 47.3044L65.7222 48.6773C65.2055 50.0395 63.9113 50.9391 62.4695 50.9391H57.1844C56.12 50.9391 55.1997 50.4694 54.5723 49.748C53.9246 50.461 53.0019 50.8885 52.0065 50.8885H47.4156L41.4698 59.7621C39.3469 62.9295 34.4512 61.0231 34.9751 57.233L35.8537 50.8885H33.4821C32.2581 50.8885 31.2247 50.2671 30.608 49.3566C29.9734 50.3309 28.8875 50.9391 27.7005 50.9391H8.71767C6.27338 50.9391 4.58869 48.4594 5.46377 46.1506L9.70587 34.9647L9.67134 34.9213C7.82115 32.6174 9.44155 29.1742 12.3764 29.1742H29.0828C28.859 28.6046 28.7756 27.9747 28.8637 27.3376L31.2497 10.0613C31.4973 8.27648 33.0058 6.94809 34.7881 6.94809H55.5736C57.6761 6.94809 59.2299 8.73654 59.1453 10.7093C59.1811 10.7068 59.218 10.7068 59.2537 10.7068H76.9197C77.515 10.7068 78.0663 10.8538 78.5449 11.1103C79.0211 10.855 79.5736 10.7068 80.182 10.7068H99.0648C99.6506 10.7068 100.192 10.849 100.666 11.097C101.148 10.8453 101.692 10.7068 102.26 10.7068H120.349C122.795 10.7068 124.479 13.189 123.601 15.4977L122.635 18.0329C122.117 19.3938 120.825 20.291 119.384 20.291H115.239L111.871 29.1742H130.242C130.848 29.1742 131.407 29.3272 131.892 29.5909C132.373 29.3284 132.935 29.1742 133.554 29.1742H154.488C156.933 29.1742 158.617 31.654 157.741 33.9615Z" fill="url(#paint4_linear_21_898)"/>
<path d="M157.741 34.0326L154.26 43.2061C153.807 44.3984 152.759 45.2366 151.538 45.4269L151.844 46.5445C152.458 48.7894 150.789 51.0102 148.485 51.0102H143.126C141.581 51.0102 140.22 49.9805 139.783 48.4811L139.241 46.6216L138.434 48.7485C137.918 50.1106 136.623 51.0102 135.182 51.0102H129.895C128.827 51.0102 127.903 50.5357 127.276 49.8095C126.627 50.5574 125.679 51.0102 124.657 51.0102H105.65C104.582 51.0102 103.659 50.5369 103.031 49.8107C102.382 50.5586 101.434 51.0102 100.413 51.0102H81.4297C80.3617 51.0102 79.4379 50.5369 78.8092 49.8107C78.1603 50.5586 77.2138 51.0102 76.1911 51.0102H70.4369C69.2428 51.0102 68.1331 50.3912 67.4926 49.3711L66.2437 47.3755L65.7222 48.7485C65.2055 50.1106 63.9113 51.0102 62.4695 51.0102H57.1844C56.12 51.0102 55.1997 50.5405 54.5723 49.8191C53.9246 50.5321 53.0019 50.9596 52.0065 50.9596H47.4156L41.4698 59.8332C39.3469 63.0006 34.4512 61.0942 34.9751 57.3041L35.8537 50.9596H33.4821C32.2581 50.9596 31.2247 50.3382 30.608 49.4277C29.9734 50.402 28.8875 51.0102 27.7005 51.0102H8.71767C6.27338 51.0102 4.58869 48.5305 5.46377 46.2217L9.70587 35.0358L9.67134 34.9925C7.82115 32.6885 9.44155 29.2453 12.3764 29.2453H29.0828C28.859 28.6757 28.7756 28.0458 28.8637 27.4087L31.2497 10.1324C31.4973 8.34759 33.0058 7.0192 34.7881 7.0192H55.5736C57.6761 7.0192 59.2299 8.80764 59.1453 10.7804C59.1811 10.7779 59.218 10.7779 59.2537 10.7779H76.9197C77.515 10.7779 78.0663 10.9249 78.5449 11.1814C79.0211 10.9261 79.5736 10.7779 80.182 10.7779H99.0648C99.6506 10.7779 100.192 10.9201 100.666 11.1682C101.148 10.9164 101.692 10.7779 102.26 10.7779H120.349C122.795 10.7779 124.479 13.2601 123.601 15.5688L122.635 18.104C122.117 19.4649 120.825 20.3621 119.384 20.3621H115.239L111.871 29.2453H130.242C130.848 29.2453 131.407 29.3983 131.892 29.662C132.373 29.3995 132.935 29.2453 133.554 29.2453H154.488C156.933 29.2453 158.617 31.7251 157.741 34.0326Z" fill="url(#paint5_linear_21_898)"/>
<path d="M157.741 34.1037L154.26 43.2772C153.807 44.4695 152.759 45.3077 151.538 45.498L151.844 46.6156C152.458 48.8605 150.789 51.0813 148.485 51.0813H143.126C141.581 51.0813 140.22 50.0516 139.783 48.5522L139.241 46.6927L138.434 48.8196C137.918 50.1817 136.623 51.0813 135.182 51.0813H129.895C128.827 51.0813 127.903 50.6068 127.276 49.8806C126.627 50.6285 125.679 51.0813 124.657 51.0813H105.65C104.582 51.0813 103.659 50.608 103.031 49.8818C102.382 50.6297 101.434 51.0813 100.413 51.0813H81.4297C80.3617 51.0813 79.4379 50.608 78.8092 49.8818C78.1603 50.6297 77.2138 51.0813 76.1911 51.0813H70.4369C69.2428 51.0813 68.1331 50.4623 67.4926 49.4422L66.2437 47.4466L65.7222 48.8196C65.2055 50.1817 63.9113 51.0813 62.4695 51.0813H57.1844C56.12 51.0813 55.1997 50.6116 54.5723 49.8902C53.9246 50.6032 53.0019 51.0307 52.0065 51.0307H47.4156L41.4698 59.9043C39.3469 63.0717 34.4512 61.1653 34.9751 57.3752L35.8537 51.0307H33.4821C32.2581 51.0307 31.2247 50.4093 30.608 49.4988C29.9734 50.4731 28.8875 51.0813 27.7005 51.0813H8.71767C6.27338 51.0813 4.58869 48.6016 5.46377 46.2929L9.70587 35.1069L9.67134 35.0636C7.82115 32.7597 9.44155 29.3164 12.3764 29.3164H29.0828C28.859 28.7468 28.7756 28.1169 28.8637 27.4798L31.2497 10.2035C31.4973 8.41869 33.0058 7.0903 34.7881 7.0903H55.5736C57.6761 7.0903 59.2299 8.87875 59.1453 10.8515C59.1811 10.8491 59.218 10.8491 59.2537 10.8491H76.9197C77.515 10.8491 78.0663 10.996 78.5449 11.2525C79.0211 10.9972 79.5736 10.8491 80.182 10.8491H99.0648C99.6506 10.8491 100.192 10.9912 100.666 11.2393C101.148 10.9876 101.692 10.8491 102.26 10.8491H120.349C122.795 10.8491 124.479 13.3312 123.601 15.6399L122.635 18.1751C122.117 19.536 120.825 20.4332 119.384 20.4332H115.239L111.871 29.3164H130.242C130.848 29.3164 131.407 29.4694 131.892 29.7331C132.373 29.4706 132.935 29.3164 133.554 29.3164H154.488C156.933 29.3164 158.617 31.7962 157.741 34.1037Z" fill="url(#paint6_linear_21_898)"/>
<path d="M157.741 34.1748L154.26 43.3483C153.807 44.5406 152.759 45.3788 151.538 45.5691L151.844 46.6867C152.458 48.9316 150.789 51.1524 148.485 51.1524H143.126C141.581 51.1524 140.22 50.1227 139.783 48.6233L139.241 46.7638L138.434 48.8907C137.918 50.2528 136.623 51.1524 135.182 51.1524H129.895C128.827 51.1524 127.903 50.6779 127.276 49.9517C126.627 50.6996 125.679 51.1524 124.657 51.1524H105.65C104.582 51.1524 103.659 50.6791 103.031 49.9529C102.382 50.7008 101.434 51.1524 100.413 51.1524H81.4297C80.3617 51.1524 79.4379 50.6791 78.8092 49.9529C78.1603 50.7008 77.2138 51.1524 76.1911 51.1524H70.4369C69.2428 51.1524 68.1331 50.5334 67.4926 49.5133L66.2437 47.5177L65.7222 48.8907C65.2055 50.2528 63.9113 51.1524 62.4695 51.1524H57.1844C56.12 51.1524 55.1997 50.6827 54.5723 49.9613C53.9246 50.6743 53.0019 51.1018 52.0065 51.1018H47.4156L41.4698 59.9754C39.3469 63.1429 34.4512 61.2364 34.9751 57.4463L35.8537 51.1018H33.4821C32.2581 51.1018 31.2247 50.4804 30.608 49.5699C29.9734 50.5442 28.8875 51.1524 27.7005 51.1524H8.71767C6.27338 51.1524 4.58869 48.6727 5.46377 46.364L9.70587 35.178L9.67134 35.1347C7.82115 32.8308 9.44155 29.3875 12.3764 29.3875H29.0828C28.859 28.8179 28.7756 28.188 28.8637 27.5509L31.2497 10.2746C31.4973 8.4898 33.0058 7.16141 34.7881 7.16141H55.5736C57.6761 7.16141 59.2299 8.94986 59.1453 10.9226C59.1811 10.9202 59.218 10.9202 59.2537 10.9202H76.9197C77.515 10.9202 78.0663 11.0671 78.5449 11.3236C79.0211 11.0683 79.5736 10.9202 80.182 10.9202H99.0648C99.6506 10.9202 100.192 11.0623 100.666 11.3104C101.148 11.0587 101.692 10.9202 102.26 10.9202H120.349C122.795 10.9202 124.479 13.4023 123.601 15.711L122.635 18.2462C122.117 19.6071 120.825 20.5043 119.384 20.5043H115.239L111.871 29.3875H130.242C130.848 29.3875 131.407 29.5405 131.892 29.8042C132.373 29.5417 132.935 29.3875 133.554 29.3875H154.488C156.933 29.3875 158.617 31.8673 157.741 34.1748Z" fill="url(#paint7_linear_21_898)"/>
<path d="M157.741 34.2459L154.26 43.4194C153.807 44.6117 152.759 45.4499 151.538 45.6402L151.844 46.7578C152.458 49.0027 150.789 51.2235 148.485 51.2235H143.126C141.581 51.2235 140.22 50.1938 139.783 48.6944L139.241 46.8349L138.434 48.9618C137.918 50.3239 136.623 51.2235 135.182 51.2235H129.895C128.827 51.2235 127.903 50.749 127.276 50.0228C126.627 50.7707 125.679 51.2235 124.657 51.2235H105.65C104.582 51.2235 103.659 50.7502 103.031 50.024C102.382 50.7719 101.434 51.2235 100.413 51.2235H81.4297C80.3617 51.2235 79.4379 50.7502 78.8092 50.024C78.1603 50.7719 77.2138 51.2235 76.1911 51.2235H70.4369C69.2428 51.2235 68.1331 50.6045 67.4926 49.5844L66.2437 47.5888L65.7222 48.9618C65.2055 50.3239 63.9113 51.2235 62.4695 51.2235H57.1844C56.12 51.2235 55.1997 50.7538 54.5723 50.0324C53.9246 50.7454 53.0019 51.173 52.0065 51.173H47.4156L41.4698 60.0465C39.3469 63.214 34.4512 61.3075 34.9751 57.5174L35.8537 51.173H33.4821C32.2581 51.173 31.2247 50.5515 30.608 49.641C29.9734 50.6153 28.8875 51.2235 27.7005 51.2235H8.71767C6.27338 51.2235 4.58869 48.7438 5.46377 46.4351L9.70587 35.2491L9.67134 35.2058C7.82115 32.9019 9.44155 29.4587 12.3764 29.4587H29.0828C28.859 28.889 28.7756 28.2591 28.8637 27.622L31.2497 10.3457C31.4973 8.5609 33.0058 7.23251 34.7881 7.23251H55.5736C57.6761 7.23251 59.2299 9.02096 59.1453 10.9937C59.1811 10.9913 59.218 10.9913 59.2537 10.9913H76.9197C77.515 10.9913 78.0663 11.1382 78.5449 11.3947C79.0211 11.1394 79.5736 10.9913 80.182 10.9913H99.0648C99.6506 10.9913 100.192 11.1334 100.666 11.3815C101.148 11.1298 101.692 10.9913 102.26 10.9913H120.349C122.795 10.9913 124.479 13.4734 123.601 15.7821L122.635 18.3173C122.117 19.6782 120.825 20.5754 119.384 20.5754H115.239L111.871 29.4587H130.242C130.848 29.4587 131.407 29.6116 131.892 29.8754C132.373 29.6128 132.935 29.4587 133.554 29.4587H154.488C156.933 29.4587 158.617 31.9384 157.741 34.2459Z" fill="url(#paint8_linear_21_898)"/>
<path d="M157.536 34.1613L154.073 43.3125C153.623 44.5019 152.581 45.3381 151.366 45.5279L151.67 46.6428C152.281 48.8823 150.621 51.0977 148.329 51.0977H142.999C141.462 51.0977 140.108 50.0705 139.673 48.5747L139.135 46.7197L138.332 48.8414C137.818 50.2003 136.53 51.0977 135.096 51.0977H129.838C128.776 51.0977 127.857 50.6244 127.233 49.8999C126.587 50.646 125.644 51.0977 124.627 51.0977H105.721C104.659 51.0977 103.741 50.6256 103.116 49.9011C102.47 50.6472 101.528 51.0977 100.511 51.0977H81.6291C80.5668 51.0977 79.6478 50.6256 79.0225 49.9011C78.3771 50.6472 77.4356 51.0977 76.4183 51.0977H70.6946C69.5067 51.0977 68.403 50.4802 67.7658 49.4626L66.5235 47.4718L66.0048 48.8414C65.4908 50.2003 64.2035 51.0977 62.7693 51.0977H57.5123C56.4535 51.0977 55.5381 50.6292 54.9139 49.9095C54.2697 50.6208 53.3519 51.0473 52.3618 51.0473H47.7952L41.8808 59.8993C39.7692 63.0591 34.8994 61.1572 35.4205 57.3763L36.2945 51.0473H33.9354C32.718 51.0473 31.69 50.4273 31.0766 49.5191C30.4453 50.491 29.3653 51.0977 28.1845 51.0977H9.30222C6.87088 51.0977 5.19511 48.624 6.06556 46.3209L10.2852 35.1621L10.2508 35.1188C8.41045 32.8205 10.0223 29.3857 12.9415 29.3857H29.5595C29.3368 28.8174 29.2539 28.189 29.3416 27.5535L31.7149 10.3191C31.9612 8.53861 33.4617 7.21344 35.2346 7.21344H55.9099C58.0014 7.21344 59.5469 8.99755 59.4628 10.9655C59.4983 10.9631 59.535 10.9631 59.5706 10.9631H77.143C77.7352 10.9631 78.2835 11.1096 78.7596 11.3655C79.2333 11.1108 79.7828 10.9631 80.388 10.9631H99.1708C99.7535 10.9631 100.292 11.1048 100.764 11.3523C101.243 11.1012 101.785 10.9631 102.349 10.9631H120.342C122.775 10.9631 124.451 13.4392 123.577 15.7423L122.616 18.2713C122.101 19.6289 120.816 20.524 119.382 20.524H115.259L111.909 29.3857H130.183C130.785 29.3857 131.342 29.5382 131.824 29.8013C132.302 29.5394 132.861 29.3857 133.477 29.3857H154.301C156.732 29.3857 158.408 31.8594 157.536 34.1613Z" fill="url(#paint9_linear_21_898)"/>
<path d="M157.741 32.5679L154.26 41.7414C153.807 42.9337 152.759 43.7719 151.538 43.9622L151.844 45.0798C152.458 47.3247 150.789 49.5455 148.485 49.5455H143.126C141.581 49.5455 140.22 48.5158 139.783 47.0164L139.241 45.1569L138.434 47.2838C137.918 48.6459 136.623 49.5455 135.182 49.5455H129.895C128.827 49.5455 127.903 49.071 127.276 48.3448C126.627 49.0927 125.679 49.5455 124.657 49.5455H105.65C104.582 49.5455 103.659 49.0722 103.031 48.346C102.382 49.0939 101.434 49.5455 100.413 49.5455H81.4297C80.3617 49.5455 79.4379 49.0722 78.8092 48.346C78.1603 49.0939 77.2138 49.5455 76.1911 49.5455H70.4369C69.2428 49.5455 68.1331 48.9265 67.4926 47.9064L66.2437 45.9108L65.7222 47.2838C65.2055 48.6459 63.9113 49.5455 62.4695 49.5455H57.1844C56.12 49.5455 55.1997 49.0758 54.5723 48.3544C53.9246 49.0674 53.0019 49.4949 52.0065 49.4949H47.4156L41.4698 58.3685C39.3469 61.5359 34.4512 59.6295 34.9751 55.8394L35.8537 49.4949H33.4821C32.2581 49.4949 31.2247 48.8735 30.608 47.963C29.9734 48.9373 28.8875 49.5455 27.7005 49.5455H8.71767C6.27338 49.5455 4.58869 47.0658 5.46377 44.7571L9.70587 33.5711L9.67134 33.5278C7.82115 31.2239 9.44155 27.7806 12.3764 27.7806H29.0828C28.859 27.211 28.7756 26.5811 28.8637 25.944L31.2497 8.66773C31.4973 6.88289 33.0058 5.5545 34.7881 5.5545H55.5736C57.6761 5.5545 59.2299 7.34295 59.1453 9.31567C59.1811 9.31326 59.218 9.31326 59.2537 9.31326H76.9197C77.515 9.31326 78.0663 9.46019 78.5449 9.71671C79.0211 9.46139 79.5736 9.31326 80.182 9.31326H99.0648C99.6506 9.31326 100.192 9.45537 100.666 9.70346C101.148 9.45176 101.692 9.31326 102.26 9.31326H120.349C122.795 9.31326 124.479 11.7954 123.601 14.1041L122.635 16.6393C122.117 18.0002 120.825 18.8974 119.384 18.8974H115.239L111.871 27.7806H130.242C130.848 27.7806 131.407 27.9336 131.892 28.1973C132.373 27.9348 132.935 27.7806 133.554 27.7806H154.488C156.933 27.7806 158.617 30.2604 157.741 32.5679Z" fill="url(#paint10_linear_21_898)"/>
<path d="M55.5732 3.0545C58.1938 3.0545 60.2803 4.66651 61.1748 6.81329H76.9199C77.4829 6.81331 78.0278 6.89289 78.5449 7.03888C79.0641 6.89261 79.6126 6.81332 80.1816 6.81329H99.0645C99.6198 6.81329 100.157 6.89062 100.666 7.03204C101.178 6.88969 101.714 6.81329 102.261 6.81329H120.349C124.587 6.81329 127.423 11.0882 125.938 14.993L125.937 14.994L124.972 17.5291C124.09 19.8464 121.877 21.3972 119.384 21.3973H116.965L115.492 25.2811H130.242C130.816 25.2811 131.369 25.3643 131.892 25.5145C132.418 25.3637 132.975 25.2811 133.554 25.2811H154.488C158.724 25.2811 161.561 29.5518 160.078 33.4559L156.597 42.6287C156.161 43.7762 155.399 44.7355 154.438 45.4129C154.791 48.8572 152.129 52.0456 148.485 52.0457H143.126C141.617 52.0456 140.218 51.4781 139.152 50.5252C138.083 51.4803 136.684 52.0457 135.182 52.0457H129.896C128.943 52.0457 128.055 51.8221 127.271 51.4363C126.475 51.8267 125.585 52.0457 124.656 52.0457H105.65C104.698 52.0457 103.811 51.8226 103.027 51.4373C102.23 51.8278 101.34 52.0457 100.412 52.0457H81.4297C80.4773 52.0457 79.5899 51.8228 78.8057 51.4373C78.009 51.8275 77.12 52.0457 76.1914 52.0457H70.4365C68.941 52.0456 67.5329 51.4817 66.4541 50.5125C65.3833 51.4752 63.9782 52.0457 62.4697 52.0457H57.1846C56.2232 52.0457 55.3277 51.8189 54.5381 51.4266C53.7629 51.7916 52.9034 51.9949 52.0068 51.9949H48.75L43.5469 59.7606C39.8859 65.223 31.6271 61.8048 32.499 55.4969L32.9863 51.9715C32.1289 51.9016 31.3344 51.6545 30.6318 51.2703C29.7569 51.7658 28.7536 52.0457 27.7002 52.0457H8.71777C4.48076 52.0457 1.64638 47.7745 3.12598 43.8709L6.93457 33.827C5.17694 30.0352 7.81415 25.2813 12.376 25.2811H26.4316L28.7734 8.32599V8.32404C29.1895 5.32611 31.7348 3.05453 34.7881 3.0545H55.5732Z" stroke="black" stroke-opacity="0.15" stroke-width="5"/>
<g filter="url(#filter0_d_21_898)">
<path fill-rule="evenodd" clip-rule="evenodd" d="M54.2148 21.1253C54.0194 21.6396 54.1608 22.2273 54.5623 22.6035C58.4232 26.2221 54.3829 22.4354 58.6109 26.3979C58.8625 26.6338 59.1976 26.768 59.5425 26.768C64.9781 26.768 71.0534 26.768 71.0534 26.768C71.3128 26.768 71.5455 26.6065 71.6387 26.3616L74.0519 20.0227C74.2101 19.6071 73.9069 19.1603 73.4666 19.1603H73.241C72.6061 19.1603 72.3731 18.3156 72.9162 17.9831L75.2472 16.5559C75.3665 16.4829 75.4584 16.3717 75.5082 16.24L76.974 12.3665C77.1312 11.9511 76.8279 11.5053 76.3882 11.5053C76.3882 11.5053 63.3166 11.5053 58.7591 11.5053C58.1866 11.5053 57.683 11.8646 57.4873 12.4028C56.4258 15.3215 55.3177 18.222 54.2148 21.1253ZM60.7429 22.9878C60.3025 22.9878 59.9993 22.5408 60.1577 22.1251L60.4215 21.433C60.5148 21.1882 60.7474 21.0268 61.0067 21.0268H66.4125C66.8528 21.0268 67.1561 21.4738 66.9977 21.8894L66.7339 22.5816C66.6406 22.8263 66.408 22.9878 66.1487 22.9878H60.7429ZM65.4899 17.1565C65.3925 17.2154 65.2812 17.2465 65.1678 17.2465H62.9321C62.4935 17.2465 62.1903 16.8028 62.3454 16.3878L62.5953 15.7192C62.6875 15.4724 62.9211 15.3092 63.1819 15.3092H66.2719C66.9084 15.3092 67.1402 16.1573 66.5941 16.4879L65.4899 17.1565Z" fill="#A6A6A6"/>
<path d="M86.0837 17.2465C85.6451 17.2465 85.3419 16.8028 85.497 16.3878L85.7468 15.7192C85.8391 15.4724 86.0727 15.3092 86.3335 15.3092H97.5684C97.8278 15.3092 98.0605 15.1476 98.1537 14.9027L99.1188 12.3677C99.277 11.9521 98.9737 11.5053 98.5335 11.5053H79.6502C79.1221 11.5053 78.8304 12.1252 79.1634 12.5398L79.9256 13.4887C80.0671 13.6648 80.1048 13.9041 80.0244 14.116L75.5528 25.9064C75.3952 26.3218 75.6985 26.768 76.1384 26.768H93.2225C93.4827 26.768 93.7158 26.6055 93.8085 26.3596L94.7551 23.8482C94.9116 23.4329 94.6084 22.9878 94.169 22.9878H83.8945C83.4541 22.9878 83.1509 22.5408 83.3093 22.1251L83.5731 21.433C83.6664 21.1882 83.899 21.0268 84.1583 21.0268H95.3972C95.6561 21.0268 95.8885 20.8658 95.982 20.6216L96.9441 18.1102C97.1033 17.6944 96.8001 17.2465 96.3593 17.2465H86.0837Z" fill="#A6A6A6"/>
<path d="M100.763 15.3092C100.323 15.3092 100.02 14.8623 100.178 14.4467L101.143 11.9117C101.236 11.6668 101.469 11.5053 101.729 11.5053H119.817C120.258 11.5053 120.561 11.9521 120.403 12.3677L119.437 14.9027C119.344 15.1476 119.112 15.3092 118.852 15.3092H113.174C112.914 15.3092 112.681 15.4711 112.588 15.7164L108.553 26.3608C108.46 26.6061 108.227 26.768 107.967 26.768H102.981C102.541 26.768 102.238 26.3219 102.395 25.9064L106.086 16.1708C106.244 15.7553 105.941 15.3092 105.501 15.3092H100.763Z" fill="#A6A6A6"/>
<path fill-rule="evenodd" clip-rule="evenodd" d="M12.2059 32.0635C12.3474 32.2397 12.3851 32.4789 12.3047 32.6908L7.6003 45.0951C7.44273 45.5105 7.74596 45.9567 8.18588 45.9567H27.1694C27.4288 45.9567 27.6615 45.7952 27.7547 45.5503L30.3047 38.852C30.4629 38.4364 30.1597 37.9896 29.7194 37.9896H29.3338C28.6989 37.9896 28.4659 37.1449 29.009 36.8124L31.5497 35.2569C31.669 35.1838 31.7608 35.0727 31.8107 34.9409L33.3647 30.8342C33.5219 30.4188 33.2187 29.973 32.7789 29.973H11.8444C11.3163 29.973 11.0246 30.5928 11.3577 31.0075L12.2059 32.0635ZM16.3083 41.9979C15.8679 41.9979 15.5647 41.5509 15.7231 41.1353L16.0222 40.3505C16.1155 40.1057 16.3481 39.9443 16.6074 39.9443H22.3321C22.7724 39.9443 23.0757 40.3913 22.9173 40.8069L22.6181 41.5917C22.5249 41.8365 22.2923 41.9979 22.0329 41.9979H16.3083ZM21.3157 35.8954C21.2183 35.9543 21.107 35.9854 20.9936 35.9854H18.6012C18.1626 35.9854 17.8594 35.5417 18.0145 35.1267L18.2986 34.3666C18.3908 34.1198 18.6244 33.9565 18.8852 33.9565H22.2489C22.8854 33.9565 23.1171 34.8047 22.571 35.1353L21.3157 35.8954Z" fill="#A6A6A6"/>
<path d="M60.3111 29.973C59.783 29.973 59.4913 30.5928 59.8243 31.0075L60.6725 32.0635C60.814 32.2397 60.8517 32.4789 60.7714 32.6908L56.067 45.0951C55.9094 45.5105 56.2126 45.9567 56.6525 45.9567H61.9379C62.1975 45.9567 62.4303 45.7949 62.5234 45.5498L64.6364 39.9848C64.8213 39.4979 65.4759 39.4322 65.7518 39.8729L69.3755 45.6617C69.4905 45.8454 69.6905 45.9567 69.9054 45.9567H75.6601C75.9197 45.9567 76.1525 45.7949 76.2456 45.5497L81.8302 30.8348C81.9878 30.4193 81.6846 29.973 81.2446 29.973H75.9595C75.6999 29.973 75.4671 30.1348 75.374 30.3799L73.261 35.9449C73.0761 36.4318 72.4215 36.4975 72.1456 36.0568L68.5219 30.268C68.4069 30.0843 68.2069 29.973 67.992 29.973H60.3111Z" fill="#A6A6A6"/>
<path d="M100.467 45.55C100.373 45.7951 100.141 45.9567 99.8811 45.9567H80.8978C80.4579 45.9567 80.1546 45.5105 80.3122 45.0951L85.0166 32.6908C85.097 32.4789 85.0593 32.2397 84.9178 32.0635L84.0696 31.0075C83.7365 30.5928 84.0282 29.973 84.5563 29.973H105.464C105.905 29.973 106.208 30.4198 106.05 30.8354L105.016 33.5501C104.923 33.795 104.69 33.9565 104.431 33.9565H91.5945C91.335 33.9565 91.1023 34.1182 91.0091 34.3632L88.4341 41.1357C88.276 41.5513 88.5793 41.9979 89.0194 41.9979H94.7449C95.0042 41.9979 95.2368 41.8365 95.3301 41.5917L95.6292 40.8069C95.7876 40.3913 95.4843 39.9443 95.044 39.9443H93.547C93.1062 39.9443 92.8029 39.4964 92.9622 39.0806L93.9927 36.3906C94.0863 36.1464 94.3186 35.9854 94.5775 35.9854H103.19C103.63 35.9854 103.933 36.4321 103.775 36.8476L100.467 45.55Z" fill="#A6A6A6"/>
<path d="M115.535 35.9854C115.096 35.9854 114.793 35.5417 114.948 35.1267L115.232 34.3666C115.324 34.1198 115.558 33.9565 115.819 33.9565H128.677C128.936 33.9565 129.169 33.795 129.262 33.5501L130.296 30.8354C130.454 30.4198 130.151 29.973 129.71 29.973H108.778C108.25 29.973 107.958 30.5928 108.291 31.0075L109.139 32.0635C109.281 32.2397 109.318 32.4789 109.238 32.6908L104.534 45.0951C104.376 45.5105 104.679 45.9567 105.119 45.9567H124.126C124.386 45.9567 124.619 45.7942 124.712 45.5483L125.726 42.8583C125.882 42.4431 125.579 41.9979 125.139 41.9979H113.242C112.801 41.9979 112.498 41.5509 112.656 41.1352L112.956 40.3505C113.049 40.1057 113.281 39.9443 113.541 39.9443H126.403C126.662 39.9443 126.894 39.7833 126.988 39.5391L128.018 36.8491C128.177 36.4333 127.874 35.9854 127.433 35.9854H115.535Z" fill="#A6A6A6"/>
<path fill-rule="evenodd" clip-rule="evenodd" d="M153.957 29.973C154.397 29.973 154.7 30.4193 154.542 30.8348L151.061 40.0073C150.968 40.2525 150.735 40.4144 150.476 40.4144H148.086C147.672 40.4144 147.371 40.8139 147.482 41.218L148.559 45.1531C148.669 45.5572 148.369 45.9567 147.954 45.9567H142.594C142.316 45.9567 142.071 45.7715 141.993 45.5016L140.644 40.8695C140.565 40.5996 140.32 40.4144 140.042 40.4144H137.615C137.356 40.4144 137.123 40.5762 137.03 40.8214L135.235 45.5497C135.142 45.7949 134.909 45.9567 134.65 45.9567H129.364C128.925 45.9567 128.621 45.5105 128.779 45.0951L133.483 32.6908C133.564 32.4789 133.526 32.2397 133.384 32.0635L132.536 31.0075C132.203 30.5928 132.495 29.973 133.023 29.973H153.957ZM140.061 33.9565C139.801 33.9565 139.569 34.1178 139.475 34.3624L139.006 35.5926C138.847 36.0083 139.15 36.4555 139.591 36.4555H145.34C145.599 36.4555 145.832 36.2942 145.925 36.0496L146.394 34.8195C146.553 34.4038 146.25 33.9565 145.809 33.9565H140.061Z" fill="#A6A6A6"/>
<path d="M32.3651 45.0439C32.2067 45.4595 32.5099 45.9066 32.9503 45.9066H51.4749C51.7351 45.9066 51.9683 45.7441 52.061 45.4982L56.8992 32.6636C56.9795 32.4507 56.9407 32.2106 56.7976 32.0346L55.3095 30.2046C55.1904 30.0581 55.0127 29.9732 54.8251 29.9732H38.5393C38.28 29.9732 38.0474 30.1346 37.9541 30.3794L32.3651 45.0439Z" fill="#A6A6A6"/>
<path fill-rule="evenodd" clip-rule="evenodd" d="M54.2148 21.3061C54.0194 21.8204 54.1608 22.4081 54.5623 22.7843C58.4232 26.4029 54.3829 22.6162 58.6109 26.5788C58.8625 26.8146 59.1976 26.9489 59.5425 26.9489C64.9781 26.9489 71.0534 26.9489 71.0534 26.9489C71.3128 26.9489 71.5455 26.7873 71.6387 26.5424L74.0519 20.2035C74.2101 19.7879 73.9069 19.3411 73.4666 19.3411H73.241C72.6061 19.3411 72.3731 18.4964 72.9162 18.1639L75.2472 16.7367C75.3665 16.6637 75.4584 16.5525 75.5082 16.4208L76.974 12.5473C77.1312 12.1319 76.8279 11.6861 76.3882 11.6861C76.3882 11.6861 63.3166 11.6861 58.7591 11.6861C58.1866 11.6861 57.683 12.0455 57.4873 12.5836C56.4258 15.5023 55.3177 18.4028 54.2148 21.3061ZM60.7429 23.1686C60.3025 23.1686 59.9993 22.7216 60.1577 22.306L60.4215 21.6138C60.5148 21.369 60.7474 21.2076 61.0067 21.2076H66.4125C66.8528 21.2076 67.1561 21.6546 66.9977 22.0703L66.7339 22.7624C66.6406 23.0072 66.408 23.1686 66.1487 23.1686H60.7429ZM65.4899 17.3373C65.3925 17.3962 65.2812 17.4273 65.1678 17.4273H62.9321C62.4935 17.4273 62.1903 16.9836 62.3454 16.5686L62.5953 15.9001C62.6875 15.6533 62.9211 15.49 63.1819 15.49H66.2719C66.9084 15.49 67.1402 16.3381 66.5941 16.6688L65.4899 17.3373Z" fill="#A6A6A6"/>
<path d="M86.0837 17.4273C85.6451 17.4273 85.3419 16.9836 85.497 16.5686L85.7468 15.9001C85.8391 15.6533 86.0727 15.49 86.3335 15.49H97.5684C97.8278 15.49 98.0605 15.3284 98.1537 15.0835L99.1188 12.5485C99.277 12.1329 98.9737 11.6861 98.5335 11.6861H79.6502C79.1221 11.6861 78.8304 12.306 79.1634 12.7206L79.9256 13.6695C80.0671 13.8457 80.1048 14.0849 80.0244 14.2968L75.5528 26.0872C75.3952 26.5027 75.6985 26.9489 76.1384 26.9489H93.2225C93.4827 26.9489 93.7158 26.7864 93.8085 26.5404L94.7551 24.029C94.9116 23.6138 94.6084 23.1686 94.169 23.1686H83.8945C83.4541 23.1686 83.1509 22.7216 83.3093 22.306L83.5731 21.6138C83.6664 21.369 83.899 21.2076 84.1583 21.2076H95.3972C95.6561 21.2076 95.8885 21.0466 95.982 20.8024L96.9441 18.291C97.1033 17.8752 96.8001 17.4273 96.3593 17.4273H86.0837Z" fill="#A6A6A6"/>
<path d="M100.763 15.49C100.323 15.49 100.02 15.0431 100.178 14.6276L101.143 12.0925C101.236 11.8476 101.469 11.6861 101.729 11.6861H119.817C120.258 11.6861 120.561 12.1329 120.403 12.5485L119.437 15.0835C119.344 15.3284 119.112 15.49 118.852 15.49H113.174C112.914 15.49 112.681 15.6519 112.588 15.8972L108.553 26.5416C108.46 26.7869 108.227 26.9489 107.967 26.9489H102.981C102.541 26.9489 102.238 26.5027 102.395 26.0873L106.086 16.3516C106.244 15.9361 105.941 15.49 105.501 15.49H100.763Z" fill="#A6A6A6"/>
<path fill-rule="evenodd" clip-rule="evenodd" d="M12.2059 32.2443C12.3474 32.4205 12.3851 32.6597 12.3047 32.8716L7.6003 45.2759C7.44273 45.6913 7.74596 46.1375 8.18588 46.1375H27.1694C27.4288 46.1375 27.6615 45.976 27.7547 45.7311L30.3047 39.0328C30.4629 38.6172 30.1597 38.1704 29.7194 38.1704H29.3338C28.6989 38.1704 28.4659 37.3257 29.009 36.9932L31.5497 35.4377C31.669 35.3647 31.7608 35.2535 31.8107 35.1217L33.3647 31.015C33.5219 30.5996 33.2187 30.1538 32.7789 30.1538H11.8444C11.3163 30.1538 11.0246 30.7737 11.3577 31.1883L12.2059 32.2443ZM16.3083 42.1787C15.8679 42.1787 15.5647 41.7317 15.7231 41.3161L16.0222 40.5313C16.1155 40.2865 16.3481 40.1251 16.6074 40.1251H22.3321C22.7724 40.1251 23.0757 40.5721 22.9173 40.9877L22.6181 41.7725C22.5249 42.0173 22.2923 42.1787 22.0329 42.1787H16.3083ZM21.3157 36.0762C21.2183 36.1351 21.107 36.1663 20.9936 36.1663H18.6012C18.1626 36.1663 17.8594 35.7225 18.0145 35.3075L18.2986 34.5474C18.3908 34.3006 18.6244 34.1374 18.8852 34.1374H22.2489C22.8854 34.1374 23.1171 34.9855 22.571 35.3161L21.3157 36.0762Z" fill="#A6A6A6"/>
<path d="M60.3111 30.1538C59.783 30.1538 59.4913 30.7737 59.8243 31.1883L60.6725 32.2443C60.814 32.4205 60.8517 32.6597 60.7714 32.8716L56.067 45.2759C55.9094 45.6913 56.2126 46.1375 56.6525 46.1375H61.9379C62.1975 46.1375 62.4303 45.9757 62.5234 45.7306L64.6364 40.1657C64.8213 39.6787 65.4759 39.613 65.7518 40.0537L69.3755 45.8425C69.4905 46.0262 69.6905 46.1375 69.9054 46.1375H75.6601C75.9197 46.1375 76.1525 45.9757 76.2456 45.7305L81.8302 31.0156C81.9878 30.6001 81.6846 30.1538 81.2446 30.1538H75.9595C75.6999 30.1538 75.4671 30.3156 75.374 30.5607L73.261 36.1257C73.0761 36.6126 72.4215 36.6783 72.1456 36.2376L68.5219 30.4488C68.4069 30.2651 68.2069 30.1538 67.992 30.1538H60.3111Z" fill="#A6A6A6"/>
<path d="M100.467 45.7309C100.373 45.9759 100.141 46.1375 99.8811 46.1375H80.8978C80.4579 46.1375 80.1546 45.6913 80.3122 45.2759L85.0166 32.8716C85.097 32.6597 85.0593 32.4205 84.9178 32.2443L84.0696 31.1883C83.7365 30.7737 84.0282 30.1538 84.5563 30.1538H105.464C105.905 30.1538 106.208 30.6006 106.05 31.0162L105.016 33.7309C104.923 33.9758 104.69 34.1374 104.431 34.1374H91.5945C91.335 34.1374 91.1023 34.299 91.0091 34.544L88.4341 41.3165C88.276 41.7321 88.5793 42.1787 89.0194 42.1787H94.7449C95.0042 42.1787 95.2368 42.0173 95.3301 41.7725L95.6292 40.9877C95.7876 40.5721 95.4843 40.1251 95.044 40.1251H93.547C93.1062 40.1251 92.8029 39.6772 92.9622 39.2614L93.9927 36.5714C94.0863 36.3272 94.3186 36.1663 94.5775 36.1663H103.19C103.63 36.1663 103.933 36.6129 103.775 37.0284L100.467 45.7309Z" fill="#A6A6A6"/>
<path d="M115.535 36.1663C115.096 36.1663 114.793 35.7225 114.948 35.3075L115.232 34.5474C115.324 34.3006 115.558 34.1374 115.819 34.1374H128.677C128.936 34.1374 129.169 33.9758 129.262 33.7309L130.296 31.0162C130.454 30.6006 130.151 30.1538 129.71 30.1538H108.778C108.25 30.1538 107.958 30.7737 108.291 31.1883L109.139 32.2443C109.281 32.4205 109.318 32.6597 109.238 32.8716L104.534 45.2759C104.376 45.6913 104.679 46.1375 105.119 46.1375H124.126C124.386 46.1375 124.619 45.975 124.712 45.7291L125.726 43.0392C125.882 42.6239 125.579 42.1787 125.139 42.1787H113.242C112.801 42.1787 112.498 41.7317 112.656 41.3161L112.956 40.5313C113.049 40.2865 113.281 40.1251 113.541 40.1251H126.403C126.662 40.1251 126.894 39.9641 126.988 39.7199L128.018 37.0299C128.177 36.6141 127.874 36.1663 127.433 36.1663H115.535Z" fill="#A6A6A6"/>
<path fill-rule="evenodd" clip-rule="evenodd" d="M153.957 30.1538C154.397 30.1538 154.7 30.6001 154.542 31.0156L151.061 40.1881C150.968 40.4333 150.735 40.5952 150.476 40.5952H148.086C147.672 40.5952 147.371 40.9947 147.482 41.3988L148.559 45.3339C148.669 45.738 148.369 46.1375 147.954 46.1375H142.594C142.316 46.1375 142.071 45.9523 141.993 45.6824L140.644 41.0503C140.565 40.7805 140.32 40.5952 140.042 40.5952H137.615C137.356 40.5952 137.123 40.757 137.03 41.0022L135.235 45.7305C135.142 45.9757 134.909 46.1375 134.65 46.1375H129.364C128.925 46.1375 128.621 45.6913 128.779 45.2759L133.483 32.8716C133.564 32.6597 133.526 32.4205 133.384 32.2443L132.536 31.1883C132.203 30.7737 132.495 30.1538 133.023 30.1538H153.957ZM140.061 34.1374C139.801 34.1374 139.569 34.2986 139.475 34.5432L139.006 35.7734C138.847 36.1891 139.15 36.6364 139.591 36.6364H145.34C145.599 36.6364 145.832 36.4751 145.925 36.2305L146.394 35.0003C146.553 34.5846 146.25 34.1374 145.809 34.1374H140.061Z" fill="#A6A6A6"/>
<path d="M32.3651 45.2247C32.2067 45.6404 32.5099 46.0874 32.9503 46.0874H51.4749C51.7351 46.0874 51.9683 45.9249 52.061 45.679L56.8992 32.8444C56.9795 32.6315 56.9407 32.3914 56.7976 32.2154L55.3095 30.3854C55.1904 30.2389 55.0127 30.154 54.8251 30.154H38.5393C38.28 30.154 38.0474 30.3154 37.9541 30.5602L32.3651 45.2247Z" fill="#A6A6A6"/>
<path fill-rule="evenodd" clip-rule="evenodd" d="M54.2148 21.4868C54.0194 22.0011 54.1608 22.5887 54.5623 22.965C58.4232 26.5835 54.3829 22.7969 58.6109 26.7594C58.8625 26.9952 59.1976 27.1295 59.5425 27.1295C64.9781 27.1295 71.0534 27.1295 71.0534 27.1295C71.3128 27.1295 71.5455 26.968 71.6387 26.7231L74.0519 20.3842C74.2101 19.9686 73.9069 19.5218 73.4666 19.5218H73.241C72.6061 19.5218 72.3731 18.6771 72.9162 18.3446L75.2472 16.9174C75.3665 16.8444 75.4584 16.7332 75.5082 16.6015L76.974 12.728C77.1312 12.3126 76.8279 11.8668 76.3882 11.8668C76.3882 11.8668 63.3166 11.8668 58.7591 11.8668C58.1866 11.8668 57.683 12.2261 57.4873 12.7642C56.4258 15.683 55.3177 18.5835 54.2148 21.4868ZM60.7429 23.3493C60.3025 23.3493 59.9993 22.9022 60.1577 22.4866L60.4215 21.7945C60.5148 21.5497 60.7474 21.3883 61.0067 21.3883H66.4125C66.8528 21.3883 67.1561 21.8353 66.9977 22.2509L66.7339 22.9431C66.6406 23.1878 66.408 23.3493 66.1487 23.3493H60.7429ZM65.4899 17.518C65.3925 17.5769 65.2812 17.608 65.1678 17.608H62.9321C62.4935 17.608 62.1903 17.1643 62.3454 16.7492L62.5953 16.0807C62.6875 15.8339 62.9211 15.6706 63.1819 15.6706H66.2719C66.9084 15.6706 67.1402 16.5188 66.5941 16.8494L65.4899 17.518Z" fill="#A6A6A6"/>
<path d="M86.0837 17.608C85.6451 17.608 85.3419 17.1643 85.497 16.7492L85.7468 16.0807C85.8391 15.8339 86.0727 15.6706 86.3335 15.6706H97.5684C97.8278 15.6706 98.0605 15.5091 98.1537 15.2642L99.1188 12.7292C99.277 12.3136 98.9737 11.8668 98.5335 11.8668H79.6502C79.1221 11.8668 78.8304 12.4866 79.1634 12.9013L79.9256 13.8502C80.0671 14.0263 80.1048 14.2655 80.0244 14.4775L75.5528 26.2679C75.3952 26.6833 75.6985 27.1295 76.1384 27.1295H93.2225C93.4827 27.1295 93.7158 26.967 93.8085 26.7211L94.7551 24.2097C94.9116 23.7944 94.6084 23.3493 94.169 23.3493H83.8945C83.4541 23.3493 83.1509 22.9022 83.3093 22.4866L83.5731 21.7945C83.6664 21.5497 83.899 21.3883 84.1583 21.3883H95.3972C95.6561 21.3883 95.8885 21.2273 95.982 20.9831L96.9441 18.4717C97.1033 18.0559 96.8001 17.608 96.3593 17.608H86.0837Z" fill="#A6A6A6"/>
<path d="M100.763 15.6706C100.323 15.6706 100.02 15.2238 100.178 14.8082L101.143 12.2732C101.236 12.0283 101.469 11.8668 101.729 11.8668H119.817C120.258 11.8668 120.561 12.3136 120.403 12.7292L119.437 15.2642C119.344 15.5091 119.112 15.6706 118.852 15.6706H113.174C112.914 15.6706 112.681 15.8326 112.588 16.0779L108.553 26.7223C108.46 26.9676 108.227 27.1295 107.967 27.1295H102.981C102.541 27.1295 102.238 26.6834 102.395 26.2679L106.086 16.5322C106.244 16.1168 105.941 15.6706 105.501 15.6706H100.763Z" fill="#A6A6A6"/>
<path fill-rule="evenodd" clip-rule="evenodd" d="M12.2059 32.425C12.3474 32.6012 12.3851 32.8404 12.3047 33.0523L7.6003 45.4565C7.44273 45.872 7.74596 46.3182 8.18588 46.3182H27.1694C27.4288 46.3182 27.6615 46.1567 27.7547 45.9118L30.3047 39.2135C30.4629 38.7979 30.1597 38.3511 29.7194 38.3511H29.3338C28.6989 38.3511 28.4659 37.5064 29.009 37.1739L31.5497 35.6184C31.669 35.5453 31.7608 35.4341 31.8107 35.3024L33.3647 31.1957C33.5219 30.7803 33.2187 30.3344 32.7789 30.3344H11.8444C11.3163 30.3344 11.0246 30.9543 11.3577 31.3689L12.2059 32.425ZM16.3083 42.3594C15.8679 42.3594 15.5647 41.9124 15.7231 41.4967L16.0222 40.712C16.1155 40.4672 16.3481 40.3057 16.6074 40.3057H22.3321C22.7724 40.3057 23.0757 40.7528 22.9173 41.1684L22.6181 41.9532C22.5249 42.1979 22.2923 42.3594 22.0329 42.3594H16.3083ZM21.3157 36.2569C21.2183 36.3158 21.107 36.3469 20.9936 36.3469H18.6012C18.1626 36.3469 17.8594 35.9032 18.0145 35.4881L18.2986 34.7281C18.3908 34.4813 18.6244 34.318 18.8852 34.318H22.2489C22.8854 34.318 23.1171 35.1662 22.571 35.4968L21.3157 36.2569Z" fill="#A6A6A6"/>
<path d="M60.3111 30.3344C59.783 30.3344 59.4913 30.9543 59.8243 31.3689L60.6725 32.425C60.814 32.6012 60.8517 32.8404 60.7714 33.0523L56.067 45.4565C55.9094 45.872 56.2126 46.3182 56.6525 46.3182H61.9379C62.1975 46.3182 62.4303 46.1564 62.5234 45.9113L64.6364 40.3463C64.8213 39.8593 65.4759 39.7937 65.7518 40.2344L69.3755 46.0232C69.4905 46.2069 69.6905 46.3182 69.9054 46.3182H75.6601C75.9197 46.3182 76.1525 46.1564 76.2456 45.9112L81.8302 31.1963C81.9878 30.7808 81.6846 30.3344 81.2446 30.3344H75.9595C75.6999 30.3344 75.4671 30.4962 75.374 30.7414L73.261 36.3063C73.0761 36.7933 72.4215 36.859 72.1456 36.4183L68.5219 30.6295C68.4069 30.4458 68.2069 30.3344 67.992 30.3344H60.3111Z" fill="#A6A6A6"/>
<path d="M100.467 45.9115C100.373 46.1565 100.141 46.3182 99.8811 46.3182H80.8978C80.4579 46.3182 80.1546 45.872 80.3122 45.4565L85.0166 33.0523C85.097 32.8404 85.0593 32.6012 84.9178 32.425L84.0696 31.3689C83.7365 30.9543 84.0282 30.3344 84.5563 30.3344H105.464C105.905 30.3344 106.208 30.7813 106.05 31.1969L105.016 33.9116C104.923 34.1565 104.69 34.318 104.431 34.318H91.5945C91.335 34.318 91.1023 34.4797 91.0091 34.7247L88.4341 41.4972C88.276 41.9128 88.5793 42.3594 89.0194 42.3594H94.7449C95.0042 42.3594 95.2368 42.1979 95.3301 41.9532L95.6292 41.1684C95.7876 40.7528 95.4843 40.3057 95.044 40.3057H93.547C93.1062 40.3057 92.8029 39.8579 92.9622 39.4421L93.9927 36.7521C94.0863 36.5079 94.3186 36.3469 94.5775 36.3469H103.19C103.63 36.3469 103.933 36.7935 103.775 37.2091L100.467 45.9115Z" fill="#A6A6A6"/>
<path d="M115.535 36.3469C115.096 36.3469 114.793 35.9032 114.948 35.4881L115.232 34.7281C115.324 34.4813 115.558 34.318 115.819 34.318H128.677C128.936 34.318 129.169 34.1565 129.262 33.9116L130.296 31.1969C130.454 30.7813 130.151 30.3344 129.71 30.3344H108.778C108.25 30.3344 107.958 30.9543 108.291 31.3689L109.139 32.425C109.281 32.6012 109.318 32.8404 109.238 33.0523L104.534 45.4565C104.376 45.872 104.679 46.3182 105.119 46.3182H124.126C124.386 46.3182 124.619 46.1557 124.712 45.9098L125.726 43.2198C125.882 42.8045 125.579 42.3594 125.139 42.3594H113.242C112.801 42.3594 112.498 41.9124 112.656 41.4967L112.956 40.7119C113.049 40.4672 113.281 40.3057 113.541 40.3057H126.403C126.662 40.3057 126.894 40.1448 126.988 39.9005L128.018 37.2106C128.177 36.7948 127.874 36.3469 127.433 36.3469H115.535Z" fill="#A6A6A6"/>
<path fill-rule="evenodd" clip-rule="evenodd" d="M153.957 30.3344C154.397 30.3344 154.7 30.7808 154.542 31.1962L151.061 40.3688C150.968 40.614 150.735 40.7759 150.476 40.7759H148.086C147.672 40.7759 147.371 41.1754 147.482 41.5795L148.559 45.5145C148.669 45.9187 148.369 46.3182 147.954 46.3182H142.594C142.316 46.3182 142.071 46.1329 141.993 45.8631L140.644 41.231C140.565 40.9611 140.32 40.7759 140.042 40.7759H137.615C137.356 40.7759 137.123 40.9377 137.03 41.1829L135.235 45.9112C135.142 46.1564 134.909 46.3182 134.65 46.3182H129.364C128.925 46.3182 128.621 45.872 128.779 45.4565L133.483 33.0523C133.564 32.8404 133.526 32.6012 133.384 32.425L132.536 31.3689C132.203 30.9543 132.495 30.3344 133.023 30.3344H153.957ZM140.061 34.318C139.801 34.318 139.569 34.4793 139.475 34.7239L139.006 35.9541C138.847 36.3697 139.15 36.817 139.591 36.817H145.34C145.599 36.817 145.832 36.6557 145.925 36.4111L146.394 35.181C146.553 34.7653 146.25 34.318 145.809 34.318H140.061Z" fill="#A6A6A6"/>
<path d="M32.3651 45.4054C32.2067 45.821 32.5099 46.268 32.9503 46.268H51.4749C51.7351 46.268 51.9683 46.1056 52.061 45.8597L56.8992 33.0251C56.9795 32.8122 56.9407 32.5721 56.7976 32.3961L55.3095 30.5661C55.1904 30.4195 55.0127 30.3347 54.8251 30.3347H38.5393C38.28 30.3347 38.0474 30.4961 37.9541 30.7409L32.3651 45.4054Z" fill="#A6A6A6"/>
<path fill-rule="evenodd" clip-rule="evenodd" d="M54.2148 21.6674C54.0194 22.1818 54.1608 22.7694 54.5623 23.1456C58.4232 26.7642 54.3829 22.9776 58.6109 26.9401C58.8625 27.1759 59.1976 27.3102 59.5425 27.3102C64.9781 27.3102 71.0534 27.3102 71.0534 27.3102C71.3128 27.3102 71.5455 27.1486 71.6387 26.9037L74.0519 20.5648C74.2101 20.1493 73.9069 19.7024 73.4666 19.7024H73.241C72.6061 19.7024 72.3731 18.8578 72.9162 18.5252L75.2472 17.0981C75.3665 17.025 75.4584 16.9139 75.5082 16.7821L76.974 12.9086C77.1312 12.4932 76.8279 12.0474 76.3882 12.0474C76.3882 12.0474 63.3166 12.0474 58.7591 12.0474C58.1866 12.0474 57.683 12.4068 57.4873 12.9449C56.4258 15.8636 55.3177 18.7641 54.2148 21.6674ZM60.7429 23.5299C60.3025 23.5299 59.9993 23.0829 60.1577 22.6673L60.4215 21.9751C60.5148 21.7304 60.7474 21.5689 61.0067 21.5689H66.4125C66.8528 21.5689 67.1561 22.016 66.9977 22.4316L66.7339 23.1237C66.6406 23.3685 66.408 23.5299 66.1487 23.5299H60.7429ZM65.4899 17.6986C65.3925 17.7576 65.2812 17.7887 65.1678 17.7887H62.9321C62.4935 17.7887 62.1903 17.3449 62.3454 16.9299L62.5953 16.2614C62.6875 16.0146 62.9211 15.8513 63.1819 15.8513H66.2719C66.9084 15.8513 67.1402 16.6995 66.5941 17.0301L65.4899 17.6986Z" fill="#A6A6A6"/>
<path d="M86.0837 17.7887C85.6451 17.7887 85.3419 17.3449 85.497 16.9299L85.7468 16.2614C85.8391 16.0146 86.0727 15.8513 86.3335 15.8513H97.5684C97.8278 15.8513 98.0605 15.6897 98.1537 15.4449L99.1188 12.9098C99.277 12.4943 98.9737 12.0474 98.5335 12.0474H79.6502C79.1221 12.0474 78.8304 12.6673 79.1634 13.0819L79.9256 14.0308C80.0671 14.207 80.1048 14.4462 80.0244 14.6581L75.5528 26.4485C75.3952 26.864 75.6985 27.3102 76.1384 27.3102H93.2225C93.4827 27.3102 93.7158 27.1477 93.8085 26.9018L94.7551 24.3904C94.9116 23.9751 94.6084 23.5299 94.169 23.5299H83.8945C83.4541 23.5299 83.1509 23.0829 83.3093 22.6673L83.5731 21.9751C83.6664 21.7304 83.899 21.5689 84.1583 21.5689H95.3972C95.6561 21.5689 95.8885 21.408 95.982 21.1637L96.9441 18.6523C97.1033 18.2366 96.8001 17.7887 96.3593 17.7887H86.0837Z" fill="#A6A6A6"/>
<path d="M100.763 15.8513C100.323 15.8513 100.02 15.4045 100.178 14.9889L101.143 12.4539C101.236 12.209 101.469 12.0474 101.729 12.0474H119.817C120.258 12.0474 120.561 12.4943 120.403 12.9098L119.437 15.4449C119.344 15.6897 119.112 15.8513 118.852 15.8513H113.174C112.914 15.8513 112.681 16.0132 112.588 16.2586L108.553 26.9029C108.46 27.1482 108.227 27.3102 107.967 27.3102H102.981C102.541 27.3102 102.238 26.864 102.395 26.4486L106.086 16.7129C106.244 16.2974 105.941 15.8513 105.501 15.8513H100.763Z" fill="#A6A6A6"/>
<path fill-rule="evenodd" clip-rule="evenodd" d="M12.2059 32.6057C12.3474 32.7818 12.3851 33.021 12.3047 33.233L7.6003 45.6372C7.44273 46.0527 7.74596 46.4989 8.18588 46.4989H27.1694C27.4288 46.4989 27.6615 46.3373 27.7547 46.0924L30.3047 39.3942C30.4629 38.9786 30.1597 38.5317 29.7194 38.5317H29.3338C28.6989 38.5317 28.4659 37.6871 29.009 37.3546L31.5497 35.799C31.669 35.726 31.7608 35.6148 31.8107 35.4831L33.3647 31.3763C33.5219 30.9609 33.2187 30.5151 32.7789 30.5151H11.8444C11.3163 30.5151 11.0246 31.135 11.3577 31.5496L12.2059 32.6057ZM16.3083 42.5401C15.8679 42.5401 15.5647 42.093 15.7231 41.6774L16.0222 40.8926C16.1155 40.6479 16.3481 40.4864 16.6074 40.4864H22.3321C22.7724 40.4864 23.0757 40.9334 22.9173 41.3491L22.6181 42.1338C22.5249 42.3786 22.2923 42.5401 22.0329 42.5401H16.3083ZM21.3157 36.4375C21.2183 36.4965 21.107 36.5276 20.9936 36.5276H18.6012C18.1626 36.5276 17.8594 36.0838 18.0145 35.6688L18.2986 34.9088C18.3908 34.662 18.6244 34.4987 18.8852 34.4987H22.2489C22.8854 34.4987 23.1171 35.3468 22.571 35.6775L21.3157 36.4375Z" fill="#A6A6A6"/>
<path d="M60.3111 30.5151C59.783 30.5151 59.4913 31.135 59.8243 31.5496L60.6725 32.6057C60.814 32.7818 60.8517 33.021 60.7714 33.233L56.067 45.6372C55.9094 46.0527 56.2126 46.4989 56.6525 46.4989H61.9379C62.1975 46.4989 62.4303 46.3371 62.5234 46.0919L64.6364 40.527C64.8213 40.04 65.4759 39.9743 65.7518 40.415L69.3755 46.2039C69.4905 46.3875 69.6905 46.4989 69.9054 46.4989H75.6601C75.9197 46.4989 76.1525 46.337 76.2456 46.0918L81.8302 31.3769C81.9878 30.9614 81.6846 30.5151 81.2446 30.5151H75.9595C75.6999 30.5151 75.4671 30.6769 75.374 30.9221L73.261 36.487C73.0761 36.974 72.4215 37.0397 72.1456 36.5989L68.5219 30.8101C68.4069 30.6264 68.2069 30.5151 67.992 30.5151H60.3111Z" fill="#A6A6A6"/>
<path d="M100.467 46.0922C100.373 46.3372 100.141 46.4989 99.8811 46.4989H80.8978C80.4579 46.4989 80.1546 46.0527 80.3122 45.6372L85.0166 33.233C85.097 33.021 85.0593 32.7818 84.9178 32.6057L84.0696 31.5496C83.7365 31.135 84.0282 30.5151 84.5563 30.5151H105.464C105.905 30.5151 106.208 30.9619 106.05 31.3775L105.016 34.0922C104.923 34.3371 104.69 34.4987 104.431 34.4987H91.5945C91.335 34.4987 91.1023 34.6604 91.0091 34.9054L88.4341 41.6779C88.276 42.0934 88.5793 42.5401 89.0194 42.5401H94.7449C95.0042 42.5401 95.2368 42.3786 95.3301 42.1338L95.6292 41.3491C95.7876 40.9334 95.4843 40.4864 95.044 40.4864H93.547C93.1062 40.4864 92.8029 40.0385 92.9622 39.6227L93.9927 36.9328C94.0863 36.6885 94.3186 36.5276 94.5775 36.5276H103.19C103.63 36.5276 103.933 36.9742 103.775 37.3898L100.467 46.0922Z" fill="#A6A6A6"/>
<path d="M115.535 36.5276C115.096 36.5276 114.793 36.0838 114.948 35.6688L115.232 34.9088C115.324 34.662 115.558 34.4987 115.819 34.4987H128.677C128.936 34.4987 129.169 34.3371 129.262 34.0922L130.296 31.3775C130.454 30.9619 130.151 30.5151 129.71 30.5151H108.778C108.25 30.5151 107.958 31.135 108.291 31.5496L109.139 32.6057C109.281 32.7818 109.318 33.021 109.238 33.233L104.534 45.6372C104.376 46.0527 104.679 46.4989 105.119 46.4989H124.126C124.386 46.4989 124.619 46.3364 124.712 46.0905L125.726 43.4005C125.882 42.9852 125.579 42.5401 125.139 42.5401H113.242C112.801 42.5401 112.498 42.093 112.656 41.6774L112.956 40.8926C113.049 40.6479 113.281 40.4864 113.541 40.4864H126.403C126.662 40.4864 126.894 40.3254 126.988 40.0812L128.018 37.3912C128.177 36.9755 127.874 36.5276 127.433 36.5276H115.535Z" fill="#A6A6A6"/>
<path fill-rule="evenodd" clip-rule="evenodd" d="M153.957 30.5151C154.397 30.5151 154.7 30.9614 154.542 31.3769L151.061 40.5495C150.968 40.7947 150.735 40.9565 150.476 40.9565H148.086C147.672 40.9565 147.371 41.3561 147.482 41.7602L148.559 45.6952C148.669 46.0993 148.369 46.4989 147.954 46.4989H142.594C142.316 46.4989 142.071 46.3136 141.993 46.0438L140.644 41.4116C140.565 41.1418 140.32 40.9565 140.042 40.9565H137.615C137.356 40.9565 137.123 41.1184 137.03 41.3636L135.235 46.0918C135.142 46.337 134.909 46.4989 134.65 46.4989H129.364C128.925 46.4989 128.621 46.0527 128.779 45.6372L133.483 33.233C133.564 33.021 133.526 32.7818 133.384 32.6057L132.536 31.5496C132.203 31.135 132.495 30.5151 133.023 30.5151H153.957ZM140.061 34.4987C139.801 34.4987 139.569 34.66 139.475 34.9046L139.006 36.1347C138.847 36.5504 139.15 36.9977 139.591 36.9977H145.34C145.599 36.9977 145.832 36.8364 145.925 36.5918L146.394 35.3616C146.553 34.946 146.25 34.4987 145.809 34.4987H140.061Z" fill="#A6A6A6"/>
<path d="M32.3651 45.5861C32.2067 46.0017 32.5099 46.4487 32.9503 46.4487H51.4749C51.7351 46.4487 51.9683 46.2862 52.061 46.0403L56.8992 33.2058C56.9795 32.9928 56.9407 32.7527 56.7976 32.5767L55.3095 30.7467C55.1904 30.6002 55.0127 30.5153 54.8251 30.5153H38.5393C38.28 30.5153 38.0474 30.6768 37.9541 30.9215L32.3651 45.5861Z" fill="#A6A6A6"/>
<path fill-rule="evenodd" clip-rule="evenodd" d="M54.2148 21.8481C54.0194 22.3624 54.1608 22.9501 54.5623 23.3263C58.4232 26.9449 54.3829 23.1582 58.6109 27.1208C58.8625 27.3566 59.1976 27.4908 59.5425 27.4908C64.9781 27.4908 71.0534 27.4908 71.0534 27.4908C71.3128 27.4908 71.5455 27.3293 71.6387 27.0844L74.0519 20.7455C74.2101 20.3299 73.9069 19.8831 73.4666 19.8831H73.241C72.6061 19.8831 72.3731 19.0384 72.9162 18.7059L75.2472 17.2787C75.3665 17.2057 75.4584 17.0945 75.5082 16.9628L76.974 13.0893C77.1312 12.6739 76.8279 12.2281 76.3882 12.2281C76.3882 12.2281 63.3166 12.2281 58.7591 12.2281C58.1866 12.2281 57.683 12.5875 57.4873 13.1256C56.4258 16.0443 55.3177 18.9448 54.2148 21.8481ZM60.7429 23.7106C60.3025 23.7106 59.9993 23.2636 60.1577 22.8479L60.4215 22.1558C60.5148 21.911 60.7474 21.7496 61.0067 21.7496H66.4125C66.8528 21.7496 67.1561 22.1966 66.9977 22.6122L66.7339 23.3044C66.6406 23.5492 66.408 23.7106 66.1487 23.7106H60.7429ZM65.4899 17.8793C65.3925 17.9382 65.2812 17.9693 65.1678 17.9693H62.9321C62.4935 17.9693 62.1903 17.5256 62.3454 17.1106L62.5953 16.442C62.6875 16.1953 62.9211 16.032 63.1819 16.032H66.2719C66.9084 16.032 67.1402 16.8801 66.5941 17.2108L65.4899 17.8793Z" fill="#A6A6A6"/>
<path d="M86.0837 17.9693C85.6451 17.9693 85.3419 17.5256 85.497 17.1106L85.7468 16.442C85.8391 16.1953 86.0727 16.032 86.3335 16.032H97.5684C97.8278 16.032 98.0605 15.8704 98.1537 15.6255L99.1188 13.0905C99.277 12.6749 98.9737 12.2281 98.5335 12.2281H79.6502C79.1221 12.2281 78.8304 12.848 79.1634 13.2626L79.9256 14.2115C80.0671 14.3877 80.1048 14.6269 80.0244 14.8388L75.5528 26.6292C75.3952 27.0447 75.6985 27.4908 76.1384 27.4908H93.2225C93.4827 27.4908 93.7158 27.3283 93.8085 27.0824L94.7551 24.571C94.9116 24.1558 94.6084 23.7106 94.169 23.7106H83.8945C83.4541 23.7106 83.1509 23.2636 83.3093 22.8479L83.5731 22.1558C83.6664 21.911 83.899 21.7496 84.1583 21.7496H95.3972C95.6561 21.7496 95.8885 21.5886 95.982 21.3444L96.9441 18.833C97.1033 18.4172 96.8001 17.9693 96.3593 17.9693H86.0837Z" fill="#A6A6A6"/>
<path d="M100.763 16.032C100.323 16.032 100.02 15.5851 100.178 15.1695L101.143 12.6345C101.236 12.3896 101.469 12.2281 101.729 12.2281H119.817C120.258 12.2281 120.561 12.6749 120.403 13.0905L119.437 15.6255C119.344 15.8704 119.112 16.032 118.852 16.032H113.174C112.914 16.032 112.681 16.1939 112.588 16.4392L108.553 27.0836C108.46 27.3289 108.227 27.4908 107.967 27.4908H102.981C102.541 27.4908 102.238 27.0447 102.395 26.6292L106.086 16.8936C106.244 16.4781 105.941 16.032 105.501 16.032H100.763Z" fill="#A6A6A6"/>
<path fill-rule="evenodd" clip-rule="evenodd" d="M12.2059 32.7863C12.3474 32.9625 12.3851 33.2017 12.3047 33.4136L7.6003 45.8179C7.44273 46.2333 7.74596 46.6795 8.18588 46.6795H27.1694C27.4288 46.6795 27.6615 46.518 27.7547 46.2731L30.3047 39.5748C30.4629 39.1592 30.1597 38.7124 29.7194 38.7124H29.3338C28.6989 38.7124 28.4659 37.8677 29.009 37.5352L31.5497 35.9797C31.669 35.9066 31.7608 35.7955 31.8107 35.6637L33.3647 31.557C33.5219 31.1416 33.2187 30.6958 32.7789 30.6958H11.8444C11.3163 30.6958 11.0246 31.3157 11.3577 31.7303L12.2059 32.7863ZM16.3083 42.7207C15.8679 42.7207 15.5647 42.2737 15.7231 41.8581L16.0222 41.0733C16.1155 40.8285 16.3481 40.6671 16.6074 40.6671H22.3321C22.7724 40.6671 23.0757 41.1141 22.9173 41.5297L22.6181 42.3145C22.5249 42.5593 22.2923 42.7207 22.0329 42.7207H16.3083ZM21.3157 36.6182C21.2183 36.6771 21.107 36.7082 20.9936 36.7082H18.6012C18.1626 36.7082 17.8594 36.2645 18.0145 35.8495L18.2986 35.0894C18.3908 34.8426 18.6244 34.6793 18.8852 34.6793H22.2489C22.8854 34.6793 23.1171 35.5275 22.571 35.8581L21.3157 36.6182Z" fill="#A6A6A6"/>
<path d="M60.3111 30.6958C59.783 30.6958 59.4913 31.3157 59.8243 31.7303L60.6725 32.7863C60.814 32.9625 60.8517 33.2017 60.7714 33.4136L56.067 45.8179C55.9094 46.2333 56.2126 46.6795 56.6525 46.6795H61.9379C62.1975 46.6795 62.4303 46.5177 62.5234 46.2726L64.6364 40.7076C64.8213 40.2207 65.4759 40.155 65.7518 40.5957L69.3755 46.3845C69.4905 46.5682 69.6905 46.6795 69.9054 46.6795H75.6601C75.9197 46.6795 76.1525 46.5177 76.2456 46.2725L81.8302 31.5576C81.9878 31.1421 81.6846 30.6958 81.2446 30.6958H75.9595C75.6999 30.6958 75.4671 30.8576 75.374 31.1027L73.261 36.6677C73.0761 37.1546 72.4215 37.2203 72.1456 36.7796L68.5219 30.9908C68.4069 30.8071 68.2069 30.6958 67.992 30.6958H60.3111Z" fill="#A6A6A6"/>
<path d="M100.467 46.2729C100.373 46.5179 100.141 46.6795 99.8811 46.6795H80.8978C80.4579 46.6795 80.1546 46.2333 80.3122 45.8179L85.0166 33.4136C85.097 33.2017 85.0593 32.9625 84.9178 32.7863L84.0696 31.7303C83.7365 31.3157 84.0282 30.6958 84.5563 30.6958H105.464C105.905 30.6958 106.208 31.1426 106.05 31.5582L105.016 34.2729C104.923 34.5178 104.69 34.6793 104.431 34.6793H91.5945C91.335 34.6793 91.1023 34.841 91.0091 35.086L88.4341 41.8585C88.276 42.2741 88.5793 42.7207 89.0194 42.7207H94.7449C95.0042 42.7207 95.2368 42.5593 95.3301 42.3145L95.6292 41.5297C95.7876 41.1141 95.4843 40.6671 95.044 40.6671H93.547C93.1062 40.6671 92.8029 40.2192 92.9622 39.8034L93.9927 37.1134C94.0863 36.8692 94.3186 36.7082 94.5775 36.7082H103.19C103.63 36.7082 103.933 37.1549 103.775 37.5704L100.467 46.2729Z" fill="#A6A6A6"/>
<path d="M115.535 36.7082C115.096 36.7082 114.793 36.2645 114.948 35.8495L115.232 35.0894C115.324 34.8426 115.558 34.6793 115.819 34.6793H128.677C128.936 34.6793 129.169 34.5178 129.262 34.2729L130.296 31.5582C130.454 31.1426 130.151 30.6958 129.71 30.6958H108.778C108.25 30.6958 107.958 31.3157 108.291 31.7303L109.139 32.7863C109.281 32.9625 109.318 33.2017 109.238 33.4136L104.534 45.8179C104.376 46.2333 104.679 46.6795 105.119 46.6795H124.126C124.386 46.6795 124.619 46.517 124.712 46.2711L125.726 43.5812C125.882 43.1659 125.579 42.7207 125.139 42.7207H113.242C112.801 42.7207 112.498 42.2737 112.656 41.8581L112.956 41.0733C113.049 40.8285 113.281 40.6671 113.541 40.6671H126.403C126.662 40.6671 126.894 40.5061 126.988 40.2619L128.018 37.5719C128.177 37.1561 127.874 36.7082 127.433 36.7082H115.535Z" fill="#A6A6A6"/>
<path fill-rule="evenodd" clip-rule="evenodd" d="M153.957 30.6958C154.397 30.6958 154.7 31.1421 154.542 31.5576L151.061 40.7301C150.968 40.9753 150.735 41.1372 150.476 41.1372H148.086C147.672 41.1372 147.371 41.5367 147.482 41.9408L148.559 45.8759C148.669 46.28 148.369 46.6795 147.954 46.6795H142.594C142.316 46.6795 142.071 46.4943 141.993 46.2244L140.644 41.5923C140.565 41.3224 140.32 41.1372 140.042 41.1372H137.615C137.356 41.1372 137.123 41.299 137.03 41.5442L135.235 46.2725C135.142 46.5177 134.909 46.6795 134.65 46.6795H129.364C128.925 46.6795 128.621 46.2333 128.779 45.8179L133.483 33.4136C133.564 33.2017 133.526 32.9625 133.384 32.7863L132.536 31.7303C132.203 31.3157 132.495 30.6958 133.023 30.6958H153.957ZM140.061 34.6793C139.801 34.6793 139.569 34.8406 139.475 35.0852L139.006 36.3154C138.847 36.7311 139.15 37.1784 139.591 37.1784H145.34C145.599 37.1784 145.832 37.0171 145.925 36.7725L146.394 35.5423C146.553 35.1266 146.25 34.6793 145.809 34.6793H140.061Z" fill="#A6A6A6"/>
<path d="M32.3651 45.7667C32.2067 46.1823 32.5099 46.6294 32.9503 46.6294H51.4749C51.7351 46.6294 51.9683 46.4669 52.061 46.221L56.8992 33.3864C56.9795 33.1735 56.9407 32.9334 56.7976 32.7574L55.3095 30.9274C55.1904 30.7809 55.0127 30.696 54.8251 30.696H38.5393C38.28 30.696 38.0474 30.8574 37.9541 31.1022L32.3651 45.7667Z" fill="#A6A6A6"/>
<path fill-rule="evenodd" clip-rule="evenodd" d="M54.2148 20.9448C54.0194 21.4591 54.1608 22.0467 54.5623 22.423C58.4232 26.0416 54.3829 22.2549 58.6109 26.2174C58.8625 26.4532 59.1976 26.5875 59.5425 26.5875C64.9781 26.5875 71.0534 26.5875 71.0534 26.5875C71.3128 26.5875 71.5455 26.426 71.6387 26.1811L74.0519 19.8422C74.2101 19.4266 73.9069 18.9798 73.4666 18.9798H73.241C72.6061 18.9798 72.3731 18.1351 72.9162 17.8026L75.2472 16.3754C75.3665 16.3024 75.4584 16.1912 75.5082 16.0595L76.974 12.186C77.1312 11.7706 76.8279 11.3248 76.3882 11.3248C76.3882 11.3248 63.3166 11.3248 58.7591 11.3248C58.1866 11.3248 57.683 11.6841 57.4873 12.2222C56.4258 15.141 55.3177 18.0415 54.2148 20.9448ZM60.7429 22.8073C60.3025 22.8073 59.9993 22.3603 60.1577 21.9446L60.4215 21.2525C60.5148 21.0077 60.7474 20.8463 61.0067 20.8463H66.4125C66.8528 20.8463 67.1561 21.2933 66.9977 21.7089L66.7339 22.4011C66.6406 22.6458 66.408 22.8073 66.1487 22.8073H60.7429ZM65.4899 16.976C65.3925 17.0349 65.2812 17.066 65.1678 17.066H62.9321C62.4935 17.066 62.1903 16.6223 62.3454 16.2072L62.5953 15.5387C62.6875 15.2919 62.9211 15.1286 63.1819 15.1286H66.2719C66.9084 15.1286 67.1402 15.9768 66.5941 16.3074L65.4899 16.976Z" fill="white"/>
<path d="M86.0837 17.066C85.6451 17.066 85.3419 16.6223 85.497 16.2072L85.7468 15.5387C85.8391 15.2919 86.0727 15.1286 86.3335 15.1286H97.5684C97.8278 15.1286 98.0605 14.9671 98.1537 14.7222L99.1188 12.1872C99.277 11.7716 98.9737 11.3248 98.5335 11.3248H79.6502C79.1221 11.3248 78.8304 11.9447 79.1634 12.3593L79.9256 13.3082C80.0671 13.4843 80.1048 13.7235 80.0244 13.9355L75.5528 25.7259C75.3952 26.1413 75.6985 26.5875 76.1384 26.5875H93.2225C93.4827 26.5875 93.7158 26.425 93.8085 26.1791L94.7551 23.6677C94.9116 23.2524 94.6084 22.8073 94.169 22.8073H83.8945C83.4541 22.8073 83.1509 22.3602 83.3093 21.9446L83.5731 21.2525C83.6664 21.0077 83.899 20.8463 84.1583 20.8463H95.3972C95.6561 20.8463 95.8885 20.6853 95.982 20.4411L96.9441 17.9297C97.1033 17.5139 96.8001 17.066 96.3593 17.066H86.0837Z" fill="white"/>
<path d="M100.763 15.1286C100.323 15.1286 100.02 14.6818 100.178 14.2662L101.143 11.7312C101.236 11.4863 101.469 11.3248 101.729 11.3248H119.817C120.258 11.3248 120.561 11.7716 120.403 12.1872L119.437 14.7222C119.344 14.9671 119.112 15.1286 118.852 15.1286H113.174C112.914 15.1286 112.681 15.2906 112.588 15.5359L108.553 26.1803C108.46 26.4256 108.227 26.5875 107.967 26.5875H102.981C102.541 26.5875 102.238 26.1414 102.395 25.7259L106.086 15.9902C106.244 15.5748 105.941 15.1286 105.501 15.1286H100.763Z" fill="white"/>
<path fill-rule="evenodd" clip-rule="evenodd" d="M12.2059 31.883C12.3474 32.0592 12.3851 32.2984 12.3047 32.5103L7.6003 44.9146C7.44273 45.33 7.74596 45.7762 8.18588 45.7762H27.1694C27.4288 45.7762 27.6615 45.6147 27.7547 45.3698L30.3047 38.6715C30.4629 38.2559 30.1597 37.8091 29.7194 37.8091H29.3338C28.6989 37.8091 28.4659 36.9644 29.009 36.6319L31.5497 35.0764C31.669 35.0033 31.7608 34.8922 31.8107 34.7604L33.3647 30.6537C33.5219 30.2383 33.2187 29.7925 32.7789 29.7925H11.8444C11.3163 29.7925 11.0246 30.4123 11.3577 30.8269L12.2059 31.883ZM16.3083 41.8174C15.8679 41.8174 15.5647 41.3704 15.7231 40.9547L16.0222 40.17C16.1155 39.9252 16.3481 39.7638 16.6074 39.7638H22.3321C22.7724 39.7638 23.0757 40.2108 22.9173 40.6264L22.6181 41.4112C22.5249 41.656 22.2923 41.8174 22.0329 41.8174H16.3083ZM21.3157 35.7149C21.2183 35.7738 21.107 35.8049 20.9936 35.8049H18.6012C18.1626 35.8049 17.8594 35.3612 18.0145 34.9461L18.2986 34.1861C18.3908 33.9393 18.6244 33.776 18.8852 33.776H22.2489C22.8854 33.776 23.1171 34.6242 22.571 34.9548L21.3157 35.7149Z" fill="white"/>
<path d="M60.3111 29.7925C59.783 29.7925 59.4913 30.4123 59.8243 30.8269L60.6725 31.883C60.814 32.0592 60.8517 32.2984 60.7714 32.5103L56.067 44.9146C55.9094 45.33 56.2126 45.7762 56.6525 45.7762H61.9379C62.1975 45.7762 62.4303 45.6144 62.5234 45.3693L64.6364 39.8043C64.8213 39.3174 65.4759 39.2517 65.7518 39.6924L69.3755 45.4812C69.4905 45.6649 69.6905 45.7762 69.9054 45.7762H75.6601C75.9197 45.7762 76.1525 45.6144 76.2456 45.3692L81.8302 30.6543C81.9878 30.2388 81.6846 29.7925 81.2446 29.7925H75.9595C75.6999 29.7925 75.4671 29.9543 75.374 30.1994L73.261 35.7644C73.0761 36.2513 72.4215 36.317 72.1456 35.8763L68.5219 30.0875C68.4069 29.9038 68.2069 29.7925 67.992 29.7925H60.3111Z" fill="white"/>
<path d="M100.467 45.3695C100.373 45.6146 100.141 45.7762 99.8811 45.7762H80.8978C80.4579 45.7762 80.1546 45.33 80.3122 44.9146L85.0166 32.5103C85.097 32.2984 85.0593 32.0592 84.9178 31.883L84.0696 30.8269C83.7365 30.4123 84.0282 29.7925 84.5563 29.7925H105.464C105.905 29.7925 106.208 30.2393 106.05 30.6549L105.016 33.3696C104.923 33.6145 104.69 33.776 104.431 33.776H91.5945C91.335 33.776 91.1023 33.9377 91.0091 34.1827L88.4341 40.9552C88.276 41.3708 88.5793 41.8174 89.0194 41.8174H94.7449C95.0042 41.8174 95.2368 41.656 95.3301 41.4112L95.6292 40.6264C95.7876 40.2108 95.4843 39.7638 95.044 39.7638H93.547C93.1062 39.7638 92.8029 39.3159 92.9622 38.9001L93.9927 36.2101C94.0863 35.9659 94.3186 35.8049 94.5775 35.8049H103.19C103.63 35.8049 103.933 36.2515 103.775 36.6671L100.467 45.3695Z" fill="white"/>
<path d="M115.535 35.8049C115.096 35.8049 114.793 35.3612 114.948 34.9461L115.232 34.1861C115.324 33.9393 115.558 33.776 115.819 33.776H128.677C128.936 33.776 129.169 33.6145 129.262 33.3696L130.296 30.6549C130.454 30.2393 130.151 29.7925 129.71 29.7925H108.778C108.25 29.7925 107.958 30.4123 108.291 30.8269L109.139 31.883C109.281 32.0592 109.318 32.2984 109.238 32.5103L104.534 44.9146C104.376 45.33 104.679 45.7762 105.119 45.7762H124.126C124.386 45.7762 124.619 45.6137 124.712 45.3678L125.726 42.6778C125.882 42.2626 125.579 41.8174 125.139 41.8174H113.242C112.801 41.8174 112.498 41.3704 112.656 40.9547L112.956 40.17C113.049 39.9252 113.281 39.7638 113.541 39.7638H126.403C126.662 39.7638 126.894 39.6028 126.988 39.3586L128.018 36.6686C128.177 36.2528 127.874 35.8049 127.433 35.8049H115.535Z" fill="white"/>
<path fill-rule="evenodd" clip-rule="evenodd" d="M153.957 29.7925C154.397 29.7925 154.7 30.2388 154.542 30.6543L151.061 39.8268C150.968 40.072 150.735 40.2339 150.476 40.2339H148.086C147.672 40.2339 147.371 40.6334 147.482 41.0375L148.559 44.9726C148.669 45.3767 148.369 45.7762 147.954 45.7762H142.594C142.316 45.7762 142.071 45.591 141.993 45.3211L140.644 40.689C140.565 40.4191 140.32 40.2339 140.042 40.2339H137.615C137.356 40.2339 137.123 40.3957 137.03 40.6409L135.235 45.3692C135.142 45.6144 134.909 45.7762 134.65 45.7762H129.364C128.925 45.7762 128.621 45.33 128.779 44.9146L133.483 32.5103C133.564 32.2984 133.526 32.0592 133.384 31.883L132.536 30.8269C132.203 30.4123 132.495 29.7925 133.023 29.7925H153.957ZM140.061 33.776C139.801 33.776 139.569 33.9373 139.475 34.1819L139.006 35.4121C138.847 35.8277 139.15 36.275 139.591 36.275H145.34C145.599 36.275 145.832 36.1137 145.925 35.8691L146.394 34.639C146.553 34.2233 146.25 33.776 145.809 33.776H140.061Z" fill="white"/>
<path d="M32.3651 44.8634C32.2067 45.279 32.5099 45.726 32.9503 45.726H51.4749C51.7351 45.726 51.9683 45.5636 52.061 45.3177L56.8992 32.4831C56.9795 32.2702 56.9407 32.0301 56.7976 31.8541L55.3095 30.0241C55.1904 29.8776 55.0127 29.7927 54.8251 29.7927H38.5393C38.28 29.7927 38.0474 29.9541 37.9541 30.1989L32.3651 44.8634Z" fill="white"/>
<path d="M55.0088 7.73618L34.2799 7.73622C33.91 7.73623 33.5969 8.00908 33.5463 8.37542L31.1638 25.6258C31.1202 25.9415 31.2835 26.2498 31.5693 26.391L40.2066 30.6581C40.4925 30.7993 40.6558 31.1077 40.6121 31.4235L37.2882 55.4279C37.1804 56.2063 38.1995 56.5945 38.6369 55.9417L56.4063 29.4239C56.6062 29.1256 56.5633 28.7269 56.3045 28.478L50.7223 23.1081C50.5084 22.9023 50.438 22.5888 50.5434 22.3114L55.701 8.73975C55.8852 8.25515 55.5272 7.73618 55.0088 7.73618Z" fill="url(#paint11_linear_21_898)"/>
<path d="M55.0088 7.9054L34.2799 7.90544C33.91 7.90545 33.5969 8.1783 33.5463 8.54464L31.1638 25.795C31.1202 26.1108 31.2835 26.419 31.5693 26.5602L40.2066 30.8273C40.4925 30.9685 40.6558 31.2769 40.6121 31.5927L37.2882 55.5971C37.1804 56.3755 38.1995 56.7637 38.6369 56.1109L56.4063 29.5931C56.6062 29.2948 56.5633 28.8962 56.3045 28.6472L50.7223 23.2773C50.5084 23.0716 50.438 22.758 50.5434 22.4806L55.701 8.90897C55.8852 8.42437 55.5272 7.9054 55.0088 7.9054Z" fill="url(#paint12_linear_21_898)"/>
<path d="M55.0088 8.07462L34.2799 8.07466C33.91 8.07467 33.5969 8.34752 33.5463 8.71386L31.1638 25.9642C31.1202 26.28 31.2835 26.5882 31.5693 26.7294L40.2066 30.9965C40.4925 31.1377 40.6558 31.4461 40.6121 31.762L37.2882 55.7664C37.1804 56.5447 38.1995 56.9329 38.6369 56.2802L56.4063 29.7623C56.6062 29.4641 56.5633 29.0654 56.3045 28.8165L50.7223 23.4465C50.5084 23.2408 50.438 22.9272 50.5434 22.6498L55.701 9.07819C55.8852 8.59359 55.5272 8.07462 55.0088 8.07462Z" fill="url(#paint13_linear_21_898)"/>
<path d="M55.0088 8.24384L34.2799 8.24388C33.91 8.24389 33.5969 8.51674 33.5463 8.88308L31.1638 26.1334C31.1202 26.4492 31.2835 26.7574 31.5693 26.8986L40.2066 31.1657C40.4925 31.3069 40.6558 31.6153 40.6121 31.9312L37.2882 55.9356C37.1804 56.7139 38.1995 57.1021 38.6369 56.4494L56.4063 29.9316C56.6062 29.6333 56.5633 29.2346 56.3045 28.9857L50.7223 23.6157C50.5084 23.41 50.438 23.0964 50.5434 22.819L55.701 9.24741C55.8852 8.76281 55.5272 8.24384 55.0088 8.24384Z" fill="url(#paint14_linear_21_898)"/>
<path d="M55.0088 8.41321L34.2799 8.41326C33.91 8.41326 33.5969 8.68611 33.5463 9.05246L31.1638 26.3028C31.1202 26.6186 31.2835 26.9268 31.5693 27.068L40.2066 31.3351C40.4925 31.4763 40.6558 31.7847 40.6121 32.1006L37.2882 56.105C37.1804 56.8833 38.1995 57.2715 38.6369 56.6187L56.4063 30.1009C56.6062 29.8027 56.5633 29.404 56.3045 29.155L50.7223 23.7851C50.5084 23.5794 50.438 23.2658 50.5434 22.9884L55.701 9.41678C55.8852 8.93218 55.5272 8.41321 55.0088 8.41321Z" fill="url(#paint15_linear_21_898)"/>
<path d="M55.0088 8.58243L34.2799 8.58248C33.91 8.58248 33.5969 8.85533 33.5463 9.22168L31.1638 26.472C31.1202 26.7878 31.2835 27.096 31.5693 27.2372L40.2066 31.5043C40.4925 31.6455 40.6558 31.9539 40.6121 32.2698L37.2882 56.2742C37.1804 57.0525 38.1995 57.4407 38.6369 56.788L56.4063 30.2702C56.6062 29.9719 56.5633 29.5732 56.3045 29.3243L50.7223 23.9543C50.5084 23.7486 50.438 23.435 50.5434 23.1576L55.701 9.586C55.8852 9.1014 55.5272 8.58243 55.0088 8.58243Z" fill="url(#paint16_linear_21_898)"/>
<path d="M55.0088 8.75196L34.2799 8.752C33.91 8.752 33.5969 9.02485 33.5463 9.3912L31.1638 26.6415C31.1202 26.9573 31.2835 27.2656 31.5693 27.4068L40.2066 31.6738C40.4925 31.8151 40.6558 32.1235 40.6121 32.4393L37.2882 56.4437C37.1804 57.2221 38.1995 57.6103 38.6369 56.9575L56.4063 30.4397C56.6062 30.1414 56.5633 29.7427 56.3045 29.4938L50.7223 24.1239C50.5084 23.9181 50.438 23.6045 50.5434 23.3271L55.701 9.75553C55.8852 9.27093 55.5272 8.75195 55.0088 8.75196Z" fill="url(#paint17_linear_21_898)"/>
<path d="M55.0088 8.92087L34.2799 8.92092C33.91 8.92092 33.5969 9.19377 33.5463 9.56012L31.1638 26.8105C31.1202 27.1262 31.2835 27.4345 31.5693 27.5757L40.2066 31.8427C40.4925 31.984 40.6558 32.2924 40.6121 32.6082L37.2882 56.6126C37.1804 57.391 38.1995 57.7792 38.6369 57.1264L56.4063 30.6086C56.6062 30.3103 56.5633 29.9116 56.3045 29.6627L50.7223 24.2928C50.5084 24.087 50.438 23.7735 50.5434 23.496L55.701 9.92444C55.8852 9.43984 55.5272 8.92087 55.0088 8.92087Z" fill="url(#paint18_linear_21_898)"/>
<path d="M55.0088 9.0904L34.2799 9.09044C33.91 9.09044 33.5969 9.36329 33.5463 9.72964L31.1638 26.98C31.1202 27.2958 31.2835 27.604 31.5693 27.7452L40.2066 32.0123C40.4925 32.1535 40.6558 32.4619 40.6121 32.7777L37.2882 56.7821C37.1804 57.5605 38.1995 57.9487 38.6369 57.2959L56.4063 30.7781C56.6062 30.4798 56.5633 30.0812 56.3045 29.8322L50.7223 24.4623C50.5084 24.2566 50.438 23.943 50.5434 23.6656L55.701 10.094C55.8852 9.60937 55.5272 9.09039 55.0088 9.0904Z" fill="url(#paint19_linear_21_898)"/>
<path d="M55.0088 7.56681L34.2799 7.56685C33.91 7.56685 33.5969 7.8397 33.5463 8.20605L31.1638 25.4564C31.1202 25.7722 31.2835 26.0804 31.5693 26.2216L40.2066 30.4887C40.4925 30.6299 40.6558 30.9383 40.6121 31.2542L37.2882 55.2586C37.1804 56.0369 38.1995 56.4251 38.6369 55.7723L56.4063 29.2545C56.6062 28.9563 56.5633 28.5576 56.3045 28.3086L50.7223 22.9387C50.5084 22.733 50.438 22.4194 50.5434 22.142L55.701 8.57038C55.8852 8.08578 55.5272 7.5668 55.0088 7.56681Z" fill="url(#paint20_linear_21_898)"/>
<rect x="37.6423" y="37.6077" width="14.6443" height="4.15498" fill="white"/>
<path d="M50.5472 31V29.7198L47.4179 33.5755L40.218 33.8373L39.7474 37.574L40.3821 34.6653H48.0172L50.5472 31Z" fill="#A6A6A6"/>
<path d="M37.5441 31.2323C37.8898 30.3217 38.7624 29.7197 39.7364 29.7197H50.5473L47.5857 33.8746H36.5409L37.5441 31.2323Z" fill="white"/>
</g>
<defs>
<filter id="filter0_d_21_898" x="7.06443" y="7.56681" width="148.014" height="51.5409" filterUnits="userSpaceOnUse" color-interpolation-filters="sRGB">
<feFlood flood-opacity="0" result="BackgroundImageFix"/>
<feColorMatrix in="SourceAlpha" type="matrix" values="0 0 0 0 0 0 0 0 0 0 0 0 0 0 0 0 0 0 127 0" result="hardAlpha"/>
<feOffset dy="0.987349"/>
<feGaussianBlur stdDeviation="0.246837"/>
<feComposite in2="hardAlpha" operator="out"/>
<feColorMatrix type="matrix" values="0 0 0 0 0 0 0 0 0 0 0 0 0 0 0 0 0 0 0.25 0"/>
<feBlend mode="normal" in2="BackgroundImageFix" result="effect1_dropShadow_21_898"/>
<feBlend mode="normal" in="SourceGraphic" in2="effect1_dropShadow_21_898" result="shape"/>
</filter>
<linearGradient id="paint0_linear_21_898" x1="-23.3463" y1="17.6322" x2="177.853" y2="55.0753" gradientUnits="userSpaceOnUse">
<stop stop-color="#090C22"/>
<stop offset="1" stop-color="#373C61"/>
</linearGradient>
<linearGradient id="paint1_linear_21_898" x1="-23.3463" y1="17.7033" x2="177.853" y2="55.1464" gradientUnits="userSpaceOnUse">
<stop stop-color="#090C22"/>
<stop offset="1" stop-color="#373C61"/>
</linearGradient>
<linearGradient id="paint2_linear_21_898" x1="-23.3463" y1="17.7744" x2="177.853" y2="55.2175" gradientUnits="userSpaceOnUse">
<stop stop-color="#090C22"/>
<stop offset="1" stop-color="#373C61"/>
</linearGradient>
<linearGradient id="paint3_linear_21_898" x1="-23.3463" y1="17.8455" x2="177.853" y2="55.2886" gradientUnits="userSpaceOnUse">
<stop stop-color="#090C22"/>
<stop offset="1" stop-color="#373C61"/>
</linearGradient>
<linearGradient id="paint4_linear_21_898" x1="-23.3463" y1="17.9165" x2="177.853" y2="55.3595" gradientUnits="userSpaceOnUse">
<stop stop-color="#090C22"/>
<stop offset="1" stop-color="#373C61"/>
</linearGradient>
<linearGradient id="paint5_linear_21_898" x1="-23.3463" y1="17.9876" x2="177.853" y2="55.4306" gradientUnits="userSpaceOnUse">
<stop stop-color="#090C22"/>
<stop offset="1" stop-color="#373C61"/>
</linearGradient>
<linearGradient id="paint6_linear_21_898" x1="-23.3463" y1="18.0587" x2="177.853" y2="55.5018" gradientUnits="userSpaceOnUse">
<stop stop-color="#090C22"/>
<stop offset="1" stop-color="#373C61"/>
</linearGradient>
<linearGradient id="paint7_linear_21_898" x1="-23.3463" y1="18.1298" x2="177.853" y2="55.5729" gradientUnits="userSpaceOnUse">
<stop stop-color="#090C22"/>
<stop offset="1" stop-color="#373C61"/>
</linearGradient>
<linearGradient id="paint8_linear_21_898" x1="-23.3463" y1="18.2009" x2="177.853" y2="55.644" gradientUnits="userSpaceOnUse">
<stop stop-color="#090C22"/>
<stop offset="1" stop-color="#373C61"/>
</linearGradient>
<linearGradient id="paint9_linear_21_898" x1="-22.5919" y1="18.1552" x2="177.58" y2="55.2999" gradientUnits="userSpaceOnUse">
<stop stop-color="#090C22"/>
<stop offset="1" stop-color="#373C61"/>
</linearGradient>
<linearGradient id="paint10_linear_21_898" x1="-23.3463" y1="16.5229" x2="177.853" y2="53.966" gradientUnits="userSpaceOnUse">
<stop stop-color="#131946"/>
<stop offset="1" stop-color="#646B9C"/>
</linearGradient>
<linearGradient id="paint11_linear_21_898" x1="61.452" y1="-6.65428" x2="39.5553" y2="66.4093" gradientUnits="userSpaceOnUse">
<stop stop-color="#B37124"/>
<stop offset="1" stop-color="#8D4E04"/>
</linearGradient>
<linearGradient id="paint12_linear_21_898" x1="61.452" y1="-6.48506" x2="39.5553" y2="66.5786" gradientUnits="userSpaceOnUse">
<stop stop-color="#B37124"/>
<stop offset="1" stop-color="#8D4E04"/>
</linearGradient>
<linearGradient id="paint13_linear_21_898" x1="61.452" y1="-6.31584" x2="39.5553" y2="66.7478" gradientUnits="userSpaceOnUse">
<stop stop-color="#B37124"/>
<stop offset="1" stop-color="#8D4E04"/>
</linearGradient>
<linearGradient id="paint14_linear_21_898" x1="61.452" y1="-6.14662" x2="39.5553" y2="66.917" gradientUnits="userSpaceOnUse">
<stop stop-color="#B37124"/>
<stop offset="1" stop-color="#8D4E04"/>
</linearGradient>
<linearGradient id="paint15_linear_21_898" x1="61.452" y1="-5.97725" x2="39.5553" y2="67.0864" gradientUnits="userSpaceOnUse">
<stop stop-color="#B37124"/>
<stop offset="1" stop-color="#8D4E04"/>
</linearGradient>
<linearGradient id="paint16_linear_21_898" x1="61.452" y1="-5.80803" x2="39.5553" y2="67.2556" gradientUnits="userSpaceOnUse">
<stop stop-color="#B37124"/>
<stop offset="1" stop-color="#8D4E04"/>
</linearGradient>
<linearGradient id="paint17_linear_21_898" x1="61.452" y1="-5.63851" x2="39.5553" y2="67.4251" gradientUnits="userSpaceOnUse">
<stop stop-color="#B37124"/>
<stop offset="1" stop-color="#8D4E04"/>
</linearGradient>
<linearGradient id="paint18_linear_21_898" x1="61.452" y1="-5.46959" x2="39.5553" y2="67.594" gradientUnits="userSpaceOnUse">
<stop stop-color="#B37124"/>
<stop offset="1" stop-color="#8D4E04"/>
</linearGradient>
<linearGradient id="paint19_linear_21_898" x1="61.452" y1="-5.30007" x2="39.5553" y2="67.7636" gradientUnits="userSpaceOnUse">
<stop stop-color="#B37124"/>
<stop offset="1" stop-color="#8D4E04"/>
</linearGradient>
<linearGradient id="paint20_linear_21_898" x1="57.8631" y1="3.98317" x2="33.8136" y2="62.6664" gradientUnits="userSpaceOnUse">
<stop stop-color="#FF8E08"/>
<stop offset="1" stop-color="#FF9F2E"/>
</linearGradient>
</defs>
</svg>
