<svg width="24" height="24" viewBox="0 0 24 24" fill="none" xmlns="http://www.w3.org/2000/svg">
<path opacity="0.4" d="M20.4608 15.9999H3.53924C2.68965 15.9999 2 16.672 2 17.4999C2 18.3267 2.68965 18.9999 3.53924 18.9999H20.4608C21.3103 18.9999 22 18.3267 22 17.4999C22 16.672 21.3103 15.9999 20.4608 15.9999Z" fill="white"/>
<path opacity="0.4" d="M12.4608 10.4999H3.53924C2.68965 10.4999 2 11.172 2 11.9999C2 12.8267 2.68965 13.4999 3.53924 13.4999H12.4608C13.3103 13.4999 14 12.8267 14 11.9999C14 11.172 13.3103 10.4999 12.4608 10.4999Z" fill="white"/>
<path d="M20.4608 10.4999H17.5392C16.6897 10.4999 16 11.172 16 11.9999C16 12.8267 16.6897 13.4999 17.5392 13.4999H20.4608C21.3103 13.4999 22 12.8267 22 11.9999C22 11.172 21.3103 10.4999 20.4608 10.4999Z" fill="white"/>
<path opacity="0.4" d="M22 6.49933C22 5.6722 21.3103 4.99989 20.4618 4.99989H3.53933C2.68969 4.99989 2 5.6722 2 6.49933C2 7.32757 2.68969 7.99989 3.53933 7.99989H20.4618C21.3103 7.99989 22 7.32757 22 6.49933Z" fill="white"/>
</svg>
