<svg width="59" height="50" viewBox="0 0 59 50" fill="none" xmlns="http://www.w3.org/2000/svg">
<g filter="url(#filter0_d_6_252)">
<path d="M11.9831 22.3734C11.9315 21.7836 11.9673 21.2746 12.0904 20.8462C12.2122 20.4019 12.37 20.0026 12.5639 19.6484C12.7737 19.2928 12.9942 18.9683 13.2255 18.675C13.4728 18.3804 13.6961 18.0878 13.8956 17.7973C14.111 17.5054 14.2764 17.1938 14.392 16.8625C14.5235 16.5297 14.5704 16.1482 14.5328 15.7178C14.4937 15.2715 14.3834 14.9279 14.2016 14.6868C14.0186 14.4298 13.8012 14.24 13.5495 14.1174C13.2979 13.9949 13.0432 13.9289 12.7854 13.9193C12.5262 13.8938 12.3009 13.8894 12.1097 13.9061C11.3924 13.9689 10.8027 14.2052 10.3407 14.615C9.89321 15.0075 9.53826 15.4481 9.27586 15.9368C9.2133 15.589 9.15592 15.2085 9.10373 14.7955C9.06607 14.3652 9.02703 13.9189 8.98659 13.4566C8.94894 13.0263 8.91477 12.6358 8.88409 12.2851C8.86935 11.933 8.85979 11.5484 8.85542 11.1312C9.25988 10.614 9.84076 10.1857 10.5981 9.84643C11.3713 9.50574 12.2441 9.29287 13.2164 9.2078C13.7742 9.159 14.3855 9.16976 15.0502 9.2401C15.7134 9.2945 16.34 9.4806 16.93 9.79839C17.5185 10.1002 18.0247 10.5619 18.4485 11.1833C18.8868 11.7874 19.152 12.6154 19.244 13.6674C19.3123 14.4484 19.2666 15.119 19.1068 15.679C18.947 16.2391 18.7258 16.7403 18.4433 17.1826C18.1753 17.6076 17.872 17.9955 17.5333 18.3463C17.1946 18.6972 16.8805 19.0539 16.591 19.4165C16.3015 19.7791 16.0626 20.1695 15.8743 20.5875C15.7019 21.0041 15.6322 21.492 15.6651 22.0513L11.9831 22.3734ZM14.1902 24.469C14.5887 24.4341 14.9463 24.4832 15.2631 24.6161C15.5958 24.7476 15.8769 24.9318 16.1065 25.1687C16.3505 25.3882 16.5416 25.6445 16.6797 25.9376C16.8163 26.2148 16.8965 26.4888 16.9202 26.7598C16.9509 27.1104 16.9085 27.4514 16.7929 27.7828C16.6933 28.1127 16.5344 28.4077 16.3162 28.6677C16.114 28.9263 15.8597 29.1413 15.5535 29.3126C15.2632 29.4826 14.9507 29.5822 14.616 29.6115C14.1856 29.6491 13.8048 29.6102 13.4735 29.4946C13.1435 29.395 12.8652 29.2426 12.6385 29.0376C12.4103 28.8167 12.2279 28.5676 12.0913 28.2905C11.9705 28.0119 11.8969 27.7212 11.8704 27.4184C11.8425 27.0996 11.8704 26.776 11.9541 26.4474C12.0364 26.1029 12.17 25.7941 12.3549 25.521C12.5543 25.2305 12.8065 24.9916 13.1113 24.8043C13.4161 24.617 13.7758 24.5053 14.1902 24.469Z" fill="#FFA800"/>
<path d="M11.9831 22.3734C11.9315 21.7836 11.9673 21.2746 12.0904 20.8462C12.2122 20.4019 12.37 20.0026 12.5639 19.6484C12.7737 19.2928 12.9942 18.9683 13.2255 18.675C13.4728 18.3804 13.6961 18.0878 13.8956 17.7973C14.111 17.5054 14.2764 17.1938 14.392 16.8625C14.5235 16.5297 14.5704 16.1482 14.5328 15.7178C14.4937 15.2715 14.3834 14.9279 14.2016 14.6868C14.0186 14.4298 13.8012 14.24 13.5495 14.1174C13.2979 13.9949 13.0432 13.9289 12.7854 13.9193C12.5262 13.8938 12.3009 13.8894 12.1097 13.9061C11.3924 13.9689 10.8027 14.2052 10.3407 14.615C9.89321 15.0075 9.53826 15.4481 9.27586 15.9368C9.2133 15.589 9.15592 15.2085 9.10373 14.7955C9.06607 14.3652 9.02703 13.9189 8.98659 13.4566C8.94894 13.0263 8.91477 12.6358 8.88409 12.2851C8.86935 11.933 8.85979 11.5484 8.85542 11.1312C9.25988 10.614 9.84076 10.1857 10.5981 9.84643C11.3713 9.50574 12.2441 9.29287 13.2164 9.2078C13.7742 9.159 14.3855 9.16976 15.0502 9.2401C15.7134 9.2945 16.34 9.4806 16.93 9.79839C17.5185 10.1002 18.0247 10.5619 18.4485 11.1833C18.8868 11.7874 19.152 12.6154 19.244 13.6674C19.3123 14.4484 19.2666 15.119 19.1068 15.679C18.947 16.2391 18.7258 16.7403 18.4433 17.1826C18.1753 17.6076 17.872 17.9955 17.5333 18.3463C17.1946 18.6972 16.8805 19.0539 16.591 19.4165C16.3015 19.7791 16.0626 20.1695 15.8743 20.5875C15.7019 21.0041 15.6322 21.492 15.6651 22.0513L11.9831 22.3734ZM14.1902 24.469C14.5887 24.4341 14.9463 24.4832 15.2631 24.6161C15.5958 24.7476 15.8769 24.9318 16.1065 25.1687C16.3505 25.3882 16.5416 25.6445 16.6797 25.9376C16.8163 26.2148 16.8965 26.4888 16.9202 26.7598C16.9509 27.1104 16.9085 27.4514 16.7929 27.7828C16.6933 28.1127 16.5344 28.4077 16.3162 28.6677C16.114 28.9263 15.8597 29.1413 15.5535 29.3126C15.2632 29.4826 14.9507 29.5822 14.616 29.6115C14.1856 29.6491 13.8048 29.6102 13.4735 29.4946C13.1435 29.395 12.8652 29.2426 12.6385 29.0376C12.4103 28.8167 12.2279 28.5676 12.0913 28.2905C11.9705 28.0119 11.8969 27.7212 11.8704 27.4184C11.8425 27.0996 11.8704 26.776 11.9541 26.4474C12.0364 26.1029 12.17 25.7941 12.3549 25.521C12.5543 25.2305 12.8065 24.9916 13.1113 24.8043C13.4161 24.617 13.7758 24.5053 14.1902 24.469Z" fill="url(#paint0_linear_6_252)" fill-opacity="0.59"/>
</g>
<g filter="url(#filter1_d_6_252)">
<path d="M33.7537 16.1764L36.0689 15.9738L35.3655 27.5311L32.618 27.7715L30.8702 21.769L30.1912 27.9838L27.5135 28.2181L24.7581 16.9634L27.0732 16.7608L28.6339 24.4802L29.5503 16.6425L31.3282 16.4026L33.585 24.047L33.7537 16.1764ZM38.8795 15.7279C38.963 17.0042 39.0317 18.0569 39.0855 18.886C39.1486 19.7143 39.2003 20.4125 39.2406 20.9804C39.2801 21.5391 39.3166 22.0091 39.3499 22.3903C39.3833 22.7715 39.417 23.1573 39.4512 23.5479L41.6335 23.2726C41.6789 23.5778 41.7193 23.8788 41.7546 24.1755C41.79 24.4722 41.8207 24.7693 41.8467 25.0669C41.8735 25.3737 41.8961 25.6856 41.9145 26.0025C41.932 26.3101 41.9457 26.6275 41.9556 26.9545L37.4508 27.3487C37.3648 26.0445 37.2667 24.7087 37.1564 23.3411C37.0554 21.9727 36.948 20.6376 36.8341 19.3359C36.7813 18.7316 36.73 18.1458 36.6804 17.5786C36.6308 17.0115 36.5781 16.4633 36.5225 15.9341L38.8795 15.7279ZM41.5359 15.5377C42.0594 15.4169 42.5617 15.3215 43.0427 15.2513C43.5229 15.1718 43.9351 15.117 44.2791 15.0869C45.0973 15.0153 45.8602 15.061 46.5677 15.2239C47.2753 15.3869 47.9146 15.7338 48.4857 16.2647C49.0071 16.7625 49.4178 17.3871 49.7177 18.1385C50.0169 18.8806 50.2051 19.6933 50.2824 20.5765C50.358 21.4412 50.3152 22.2367 50.1539 22.9628C49.9925 23.689 49.7014 24.3234 49.2804 24.8662C48.8688 25.4081 48.3265 25.8491 47.6535 26.189C46.9806 26.529 46.17 26.7404 45.2216 26.8234C45.0077 26.8421 44.6582 26.8633 44.1731 26.887C43.6973 26.9099 43.1683 26.914 42.5862 26.8994C42.558 26.4709 42.5265 26.0567 42.4915 25.6569C42.465 25.247 42.4347 24.8468 42.4005 24.4563C42.3748 24.0556 42.3445 23.6554 42.3095 23.2556C42.2746 22.8558 42.2384 22.4421 42.2009 22.0144C42.0944 20.7963 41.983 19.6303 41.8668 18.5162C41.7599 17.4012 41.6496 16.4084 41.5359 15.5377ZM44.4258 17.4069C44.3329 17.4151 44.2449 17.4274 44.1621 17.444C44.0885 17.4599 44.0149 17.4757 43.9414 17.4915C43.9703 17.9293 44.0039 18.3667 44.0421 18.8037C44.0795 19.2314 44.1174 19.6637 44.1556 20.1007C44.1743 20.3146 44.1942 20.5424 44.2154 20.7841C44.2458 21.025 44.2724 21.2757 44.2952 21.536C44.3265 21.7862 44.3582 22.0411 44.3902 22.3006C44.4215 22.5509 44.4469 22.7876 44.4664 23.0107C44.5517 23.022 44.6366 23.0286 44.7211 23.0306C44.8048 23.0233 44.8792 23.0168 44.9443 23.0111C45.2883 22.981 45.5979 22.8789 45.8731 22.7049C46.1576 22.5301 46.3958 22.3079 46.5877 22.0381C46.7881 21.7583 46.9337 21.441 47.0244 21.0864C47.1152 20.7318 47.1435 20.3593 47.1093 19.9688C47.0841 19.6806 47.0154 19.3774 46.9033 19.0593C46.7996 18.7311 46.6384 18.4407 46.4195 18.1881C46.21 17.9348 45.9394 17.7336 45.6078 17.5846C45.2847 17.4255 44.8907 17.3662 44.4258 17.4069Z" fill="#FFA800"/>
<path d="M33.7537 16.1764L36.0689 15.9738L35.3655 27.5311L32.618 27.7715L30.8702 21.769L30.1912 27.9838L27.5135 28.2181L24.7581 16.9634L27.0732 16.7608L28.6339 24.4802L29.5503 16.6425L31.3282 16.4026L33.585 24.047L33.7537 16.1764ZM38.8795 15.7279C38.963 17.0042 39.0317 18.0569 39.0855 18.886C39.1486 19.7143 39.2003 20.4125 39.2406 20.9804C39.2801 21.5391 39.3166 22.0091 39.3499 22.3903C39.3833 22.7715 39.417 23.1573 39.4512 23.5479L41.6335 23.2726C41.6789 23.5778 41.7193 23.8788 41.7546 24.1755C41.79 24.4722 41.8207 24.7693 41.8467 25.0669C41.8735 25.3737 41.8961 25.6856 41.9145 26.0025C41.932 26.3101 41.9457 26.6275 41.9556 26.9545L37.4508 27.3487C37.3648 26.0445 37.2667 24.7087 37.1564 23.3411C37.0554 21.9727 36.948 20.6376 36.8341 19.3359C36.7813 18.7316 36.73 18.1458 36.6804 17.5786C36.6308 17.0115 36.5781 16.4633 36.5225 15.9341L38.8795 15.7279ZM41.5359 15.5377C42.0594 15.4169 42.5617 15.3215 43.0427 15.2513C43.5229 15.1718 43.9351 15.117 44.2791 15.0869C45.0973 15.0153 45.8602 15.061 46.5677 15.2239C47.2753 15.3869 47.9146 15.7338 48.4857 16.2647C49.0071 16.7625 49.4178 17.3871 49.7177 18.1385C50.0169 18.8806 50.2051 19.6933 50.2824 20.5765C50.358 21.4412 50.3152 22.2367 50.1539 22.9628C49.9925 23.689 49.7014 24.3234 49.2804 24.8662C48.8688 25.4081 48.3265 25.8491 47.6535 26.189C46.9806 26.529 46.17 26.7404 45.2216 26.8234C45.0077 26.8421 44.6582 26.8633 44.1731 26.887C43.6973 26.9099 43.1683 26.914 42.5862 26.8994C42.558 26.4709 42.5265 26.0567 42.4915 25.6569C42.465 25.247 42.4347 24.8468 42.4005 24.4563C42.3748 24.0556 42.3445 23.6554 42.3095 23.2556C42.2746 22.8558 42.2384 22.4421 42.2009 22.0144C42.0944 20.7963 41.983 19.6303 41.8668 18.5162C41.7599 17.4012 41.6496 16.4084 41.5359 15.5377ZM44.4258 17.4069C44.3329 17.4151 44.2449 17.4274 44.1621 17.444C44.0885 17.4599 44.0149 17.4757 43.9414 17.4915C43.9703 17.9293 44.0039 18.3667 44.0421 18.8037C44.0795 19.2314 44.1174 19.6637 44.1556 20.1007C44.1743 20.3146 44.1942 20.5424 44.2154 20.7841C44.2458 21.025 44.2724 21.2757 44.2952 21.536C44.3265 21.7862 44.3582 22.0411 44.3902 22.3006C44.4215 22.5509 44.4469 22.7876 44.4664 23.0107C44.5517 23.022 44.6366 23.0286 44.7211 23.0306C44.8048 23.0233 44.8792 23.0168 44.9443 23.0111C45.2883 22.981 45.5979 22.8789 45.8731 22.7049C46.1576 22.5301 46.3958 22.3079 46.5877 22.0381C46.7881 21.7583 46.9337 21.441 47.0244 21.0864C47.1152 20.7318 47.1435 20.3593 47.1093 19.9688C47.0841 19.6806 47.0154 19.3774 46.9033 19.0593C46.7996 18.7311 46.6384 18.4407 46.4195 18.1881C46.21 17.9348 45.9394 17.7336 45.6078 17.5846C45.2847 17.4255 44.8907 17.3662 44.4258 17.4069Z" fill="url(#paint1_linear_6_252)" fill-opacity="0.59"/>
</g>
<defs>
<filter id="filter0_d_6_252" x="0.649818" y="8.71832" width="27.9433" height="41.2592" filterUnits="userSpaceOnUse" color-interpolation-filters="sRGB">
<feFlood flood-opacity="0" result="BackgroundImageFix"/>
<feColorMatrix in="SourceAlpha" type="matrix" values="0 0 0 0 0 0 0 0 0 0 0 0 0 0 0 0 0 0 127 0" result="hardAlpha"/>
<feMorphology radius="8" operator="erode" in="SourceAlpha" result="effect1_dropShadow_6_252"/>
<feOffset dy="12"/>
<feGaussianBlur stdDeviation="8"/>
<feComposite in2="hardAlpha" operator="out"/>
<feColorMatrix type="matrix" values="0 0 0 0 0.0235294 0 0 0 0 0.0470588 0 0 0 0 0.172549 0 0 0 0.5 0"/>
<feBlend mode="normal" in2="BackgroundImageFix" result="effect1_dropShadow_6_252"/>
<feBlend mode="normal" in="SourceGraphic" in2="effect1_dropShadow_6_252" result="shape"/>
</filter>
<filter id="filter1_d_6_252" x="16.7434" y="14.6074" width="42.0429" height="33.9179" filterUnits="userSpaceOnUse" color-interpolation-filters="sRGB">
<feFlood flood-opacity="0" result="BackgroundImageFix"/>
<feColorMatrix in="SourceAlpha" type="matrix" values="0 0 0 0 0 0 0 0 0 0 0 0 0 0 0 0 0 0 127 0" result="hardAlpha"/>
<feMorphology radius="8" operator="erode" in="SourceAlpha" result="effect1_dropShadow_6_252"/>
<feOffset dy="12"/>
<feGaussianBlur stdDeviation="8"/>
<feComposite in2="hardAlpha" operator="out"/>
<feColorMatrix type="matrix" values="0 0 0 0 0.0235294 0 0 0 0 0.0470588 0 0 0 0 0.172549 0 0 0 0.5 0"/>
<feBlend mode="normal" in2="BackgroundImageFix" result="effect1_dropShadow_6_252"/>
<feBlend mode="normal" in="SourceGraphic" in2="effect1_dropShadow_6_252" result="shape"/>
</filter>
<linearGradient id="paint0_linear_6_252" x1="13.412" y1="3.94869" x2="16.3438" y2="37.4589" gradientUnits="userSpaceOnUse">
<stop stop-color="white"/>
<stop offset="1" stop-color="white" stop-opacity="0"/>
</linearGradient>
<linearGradient id="paint1_linear_6_252" x1="37.3248" y1="10.7233" x2="39.432" y2="34.8088" gradientUnits="userSpaceOnUse">
<stop stop-color="white"/>
<stop offset="1" stop-color="white" stop-opacity="0"/>
</linearGradient>
</defs>
</svg>
