<svg width="21" height="20" viewBox="0 0 21 20" fill="none" xmlns="http://www.w3.org/2000/svg">
<path opacity="0.4" d="M18 11.25C18 15.393 14.6423 18.75 10.5 18.75C6.35775 18.75 3 15.393 3 11.25C3 7.1085 6.35775 3.75 10.5 3.75C14.6423 3.75 18 7.1085 18 11.25Z" fill="#9CA6ED"/>
<path d="M10.5 7.41666C10.5 6.31209 11.4208 5.38484 12.4611 5.75617C12.8146 5.88236 13.1565 6.04289 13.4818 6.23635C14.3839 6.77287 15.1245 7.54283 15.6256 8.46508C16.1267 9.38732 16.3697 10.4277 16.3289 11.4765C16.3142 11.8547 16.2628 12.2289 16.1764 12.5942C15.9218 13.669 14.6428 13.937 13.7161 13.3359L10.7279 11.3978C10.5858 11.3056 10.5 11.1477 10.5 10.9783V7.41666Z" fill="#9CA6ED"/>
<rect opacity="0.4" x="8" y="1.25" width="5" height="1.66667" rx="0.833333" fill="#9CA6ED"/>
</svg>
