<svg width="71" height="49" viewBox="0 0 71 49" fill="none" xmlns="http://www.w3.org/2000/svg">
<g filter="url(#filter0_d_6_294)">
<path d="M18.434 8.44093C18.428 9.40211 18.4281 10.323 18.4345 11.2035C18.4563 12.0674 18.4776 12.9233 18.4986 13.7712C18.5189 14.6031 18.5392 15.435 18.5595 16.2669C18.5958 17.0981 18.6328 17.9453 18.6705 18.8085L20.0612 18.7478C20.1092 19.114 20.1496 19.4886 20.1823 19.8715C20.215 20.2545 20.2401 20.6458 20.2576 21.0454C20.2799 21.5569 20.2943 22.0688 20.3006 22.581C20.3063 23.0772 20.3036 23.5658 20.2925 24.0467L18.9019 24.1074L19.0746 28.0637L15.1903 28.2333C15.195 27.6085 15.1831 26.9684 15.1545 26.313C15.1419 25.6569 15.1282 24.9769 15.1135 24.2728L8.83145 24.5471C8.79313 24.0363 8.75516 23.5335 8.71754 23.0386C8.69591 22.5431 8.67357 22.0316 8.65054 21.5041C8.63379 21.1205 8.61704 20.7368 8.60029 20.3532C8.58354 19.9696 8.58348 19.6012 8.60009 19.2482C8.75848 18.8409 8.96862 18.3352 9.23052 17.7312C9.49173 17.1112 9.77552 16.4582 10.0819 15.7722C10.4042 15.0855 10.7259 14.3828 11.0468 13.6641C11.3671 12.9295 11.6655 12.2438 11.942 11.6071C12.2338 10.9538 12.4807 10.3744 12.6829 9.86915C12.9003 9.34717 13.051 8.94821 13.1351 8.67229L18.434 8.44093ZM11.4294 19.1246L14.9061 18.9728L14.8914 18.6372C14.8503 17.6941 14.8161 16.9108 14.7888 16.2874C14.7609 15.648 14.7288 15.0969 14.6926 14.634C14.6717 14.1545 14.6528 13.7229 14.6361 13.3393C14.6193 12.9556 14.6012 12.54 14.5817 12.0924L11.4294 19.1246ZM24.5228 12.7635C24.5013 13.0046 24.4899 13.2934 24.4886 13.6298C24.5032 13.9655 24.5154 14.2452 24.5252 14.469C24.5469 14.9645 24.5914 15.435 24.6589 15.8805C25.0071 15.7852 25.348 15.7063 25.6816 15.6437C26.0311 15.5803 26.3738 15.5414 26.7094 15.5267C27.5406 15.4904 28.3145 15.6088 29.0311 15.8818C29.7477 16.1548 30.3733 16.5439 30.9078 17.049C31.4424 17.5542 31.8612 18.1605 32.1644 18.8679C32.4828 19.5587 32.6595 20.3037 32.6944 21.103C32.7307 21.9342 32.6064 22.7564 32.3216 23.5696C32.0521 24.3661 31.6352 25.0889 31.071 25.7382C30.5068 26.3874 29.8015 26.9227 28.955 27.344C28.1239 27.7486 27.1648 27.9747 26.0779 28.0221C25.7902 28.0347 25.4458 28.0337 25.0448 28.0192C24.6597 28.004 24.265 27.9492 23.8605 27.8547C23.456 27.7603 23.0657 27.6252 22.6897 27.4494C22.3289 27.2569 22.0297 27.0058 21.7919 26.6958C21.7411 26.2656 21.7001 25.8751 21.6687 25.5241C21.6534 25.1724 21.6356 24.7648 21.6153 24.3013C21.5944 23.8217 21.5769 23.4221 21.563 23.1024C21.565 22.782 21.574 22.4373 21.5899 22.0682C21.9743 22.4358 22.4511 22.7193 23.0204 22.9187C23.5896 23.118 24.1939 23.2037 24.8333 23.1758C25.7284 23.1367 26.431 22.9059 26.9411 22.4832C27.4504 22.0446 27.6905 21.4896 27.6612 20.8182C27.6318 20.1469 27.3374 19.6392 26.7779 19.2953C26.2343 18.9507 25.491 18.799 24.5479 18.8401C23.9085 18.8681 23.3289 18.9814 22.8091 19.1803C22.2886 19.3632 21.8675 19.6218 21.5457 19.9562C21.5092 18.0199 21.4488 16.0847 21.3643 14.1505C21.3231 13.2074 21.2726 12.2327 21.2126 11.2264C21.1687 10.2193 21.1104 9.25296 21.038 8.32724L31.3722 7.87604C31.4216 8.27426 31.4626 8.66484 31.4954 9.04778C31.5281 9.43071 31.5532 9.82199 31.5707 10.2216C31.5888 10.6372 31.5986 11.0452 31.6001 11.4455C31.6015 11.8458 31.5954 12.2545 31.5815 12.6715L24.5228 12.7635Z" fill="#FFA800"/>
<path d="M18.434 8.44093C18.428 9.40211 18.4281 10.323 18.4345 11.2035C18.4563 12.0674 18.4776 12.9233 18.4986 13.7712C18.5189 14.6031 18.5392 15.435 18.5595 16.2669C18.5958 17.0981 18.6328 17.9453 18.6705 18.8085L20.0612 18.7478C20.1092 19.114 20.1496 19.4886 20.1823 19.8715C20.215 20.2545 20.2401 20.6458 20.2576 21.0454C20.2799 21.5569 20.2943 22.0688 20.3006 22.581C20.3063 23.0772 20.3036 23.5658 20.2925 24.0467L18.9019 24.1074L19.0746 28.0637L15.1903 28.2333C15.195 27.6085 15.1831 26.9684 15.1545 26.313C15.1419 25.6569 15.1282 24.9769 15.1135 24.2728L8.83145 24.5471C8.79313 24.0363 8.75516 23.5335 8.71754 23.0386C8.69591 22.5431 8.67357 22.0316 8.65054 21.5041C8.63379 21.1205 8.61704 20.7368 8.60029 20.3532C8.58354 19.9696 8.58348 19.6012 8.60009 19.2482C8.75848 18.8409 8.96862 18.3352 9.23052 17.7312C9.49173 17.1112 9.77552 16.4582 10.0819 15.7722C10.4042 15.0855 10.7259 14.3828 11.0468 13.6641C11.3671 12.9295 11.6655 12.2438 11.942 11.6071C12.2338 10.9538 12.4807 10.3744 12.6829 9.86915C12.9003 9.34717 13.051 8.94821 13.1351 8.67229L18.434 8.44093ZM11.4294 19.1246L14.9061 18.9728L14.8914 18.6372C14.8503 17.6941 14.8161 16.9108 14.7888 16.2874C14.7609 15.648 14.7288 15.0969 14.6926 14.634C14.6717 14.1545 14.6528 13.7229 14.6361 13.3393C14.6193 12.9556 14.6012 12.54 14.5817 12.0924L11.4294 19.1246ZM24.5228 12.7635C24.5013 13.0046 24.4899 13.2934 24.4886 13.6298C24.5032 13.9655 24.5154 14.2452 24.5252 14.469C24.5469 14.9645 24.5914 15.435 24.6589 15.8805C25.0071 15.7852 25.348 15.7063 25.6816 15.6437C26.0311 15.5803 26.3738 15.5414 26.7094 15.5267C27.5406 15.4904 28.3145 15.6088 29.0311 15.8818C29.7477 16.1548 30.3733 16.5439 30.9078 17.049C31.4424 17.5542 31.8612 18.1605 32.1644 18.8679C32.4828 19.5587 32.6595 20.3037 32.6944 21.103C32.7307 21.9342 32.6064 22.7564 32.3216 23.5696C32.0521 24.3661 31.6352 25.0889 31.071 25.7382C30.5068 26.3874 29.8015 26.9227 28.955 27.344C28.1239 27.7486 27.1648 27.9747 26.0779 28.0221C25.7902 28.0347 25.4458 28.0337 25.0448 28.0192C24.6597 28.004 24.265 27.9492 23.8605 27.8547C23.456 27.7603 23.0657 27.6252 22.6897 27.4494C22.3289 27.2569 22.0297 27.0058 21.7919 26.6958C21.7411 26.2656 21.7001 25.8751 21.6687 25.5241C21.6534 25.1724 21.6356 24.7648 21.6153 24.3013C21.5944 23.8217 21.5769 23.4221 21.563 23.1024C21.565 22.782 21.574 22.4373 21.5899 22.0682C21.9743 22.4358 22.4511 22.7193 23.0204 22.9187C23.5896 23.118 24.1939 23.2037 24.8333 23.1758C25.7284 23.1367 26.431 22.9059 26.9411 22.4832C27.4504 22.0446 27.6905 21.4896 27.6612 20.8182C27.6318 20.1469 27.3374 19.6392 26.7779 19.2953C26.2343 18.9507 25.491 18.799 24.5479 18.8401C23.9085 18.8681 23.3289 18.9814 22.8091 19.1803C22.2886 19.3632 21.8675 19.6218 21.5457 19.9562C21.5092 18.0199 21.4488 16.0847 21.3643 14.1505C21.3231 13.2074 21.2726 12.2327 21.2126 11.2264C21.1687 10.2193 21.1104 9.25296 21.038 8.32724L31.3722 7.87604C31.4216 8.27426 31.4626 8.66484 31.4954 9.04778C31.5281 9.43071 31.5532 9.82199 31.5707 10.2216C31.5888 10.6372 31.5986 11.0452 31.6001 11.4455C31.6015 11.8458 31.5954 12.2545 31.5815 12.6715L24.5228 12.7635Z" fill="url(#paint0_linear_6_294)" fill-opacity="0.59"/>
</g>
<g filter="url(#filter1_d_6_294)">
<path d="M46.323 15.411L48.6448 15.3097L47.438 26.8253L44.6826 26.9456L43.1983 20.8725L42.2489 27.0518L39.5635 27.1691L37.3016 15.8049L39.6234 15.7035L40.8459 23.4836L42.1033 15.6934L43.8899 15.5313L45.8112 23.2668L46.323 15.411ZM51.4634 15.1866C51.4912 16.4653 51.5139 17.5199 51.5315 18.3506C51.5584 19.1809 51.5796 19.8807 51.5951 20.4499C51.6102 21.0097 51.6261 21.4808 51.6428 21.8631C51.6595 22.2454 51.6764 22.6324 51.6935 23.024L53.8858 22.8442C53.9178 23.1511 53.9451 23.4535 53.9674 23.7515C53.9898 24.0495 54.0075 24.3477 54.0205 24.6461C54.0339 24.9538 54.0429 25.2663 54.0474 25.5838C54.0515 25.8919 54.0514 26.2095 54.047 26.5367L49.5293 26.734C49.5003 25.4273 49.4605 24.0884 49.41 22.7173C49.3688 21.3458 49.3197 20.0074 49.2627 18.7019C49.2362 18.0958 49.2106 17.5084 49.1857 16.9396C49.1609 16.3708 49.1322 15.8209 49.0997 15.2898L51.4634 15.1866ZM54.1257 15.1124C54.6539 15.0146 55.1599 14.9411 55.6435 14.892C56.1268 14.8335 56.5409 14.7967 56.8859 14.7817C57.7064 14.7459 58.4666 14.8248 59.1664 15.0184C59.8662 15.2121 60.4898 15.5866 61.0372 16.1419C61.5363 16.662 61.9194 17.3039 62.1863 18.0676C62.4528 18.822 62.6053 19.6422 62.644 20.528C62.6819 21.3952 62.6044 22.188 62.4115 22.9064C62.2187 23.6248 61.9002 24.246 61.4559 24.7699C61.021 25.2933 60.46 25.7102 59.7729 26.0205C59.0857 26.3307 58.2666 26.5066 57.3155 26.5481C57.1011 26.5575 56.751 26.5634 56.2653 26.566C55.789 26.5681 55.2603 26.5491 54.6793 26.5091C54.6699 26.0798 54.6565 25.6646 54.639 25.2637C54.6304 24.853 54.6175 24.4518 54.6004 24.0602C54.5923 23.6588 54.5794 23.2577 54.5619 22.8567C54.5444 22.4558 54.5263 22.0409 54.5076 21.6119C54.4542 20.3904 54.3938 19.2206 54.3263 18.1025C54.2681 16.984 54.2013 15.9873 54.1257 15.1124ZM56.9313 17.1059C56.8381 17.11 56.7497 17.1185 56.6662 17.1315C56.592 17.1441 56.5178 17.1567 56.4436 17.1693C56.4534 17.6079 56.4679 18.0464 56.487 18.4846C56.5058 18.9135 56.5247 19.3471 56.5438 19.7854C56.5532 19.9998 56.5632 20.2283 56.5737 20.4707C56.5937 20.7127 56.6093 20.9643 56.6207 21.2254C56.641 21.4767 56.6615 21.7328 56.6823 21.9934C56.7026 22.2448 56.7176 22.4824 56.7274 22.7061C56.8121 22.7211 56.8967 22.7314 56.981 22.7371C57.0649 22.7334 57.1395 22.7302 57.2048 22.7273C57.5498 22.7123 57.8636 22.6238 58.1461 22.462C58.438 22.2998 58.6856 22.0881 58.8891 21.827C59.1015 21.5562 59.2608 21.2456 59.3669 20.8953C59.4731 20.545 59.5176 20.174 59.5005 19.7824C59.4879 19.4933 59.4325 19.1875 59.3343 18.8648C59.2451 18.5323 59.0966 18.2352 58.889 17.9733C58.6907 17.7111 58.4292 17.4983 58.1044 17.335C57.7886 17.1619 57.3975 17.0856 56.9313 17.1059Z" fill="#FFA800"/>
<path d="M46.323 15.411L48.6448 15.3097L47.438 26.8253L44.6826 26.9456L43.1983 20.8725L42.2489 27.0518L39.5635 27.1691L37.3016 15.8049L39.6234 15.7035L40.8459 23.4836L42.1033 15.6934L43.8899 15.5313L45.8112 23.2668L46.323 15.411ZM51.4634 15.1866C51.4912 16.4653 51.5139 17.5199 51.5315 18.3506C51.5584 19.1809 51.5796 19.8807 51.5951 20.4499C51.6102 21.0097 51.6261 21.4808 51.6428 21.8631C51.6595 22.2454 51.6764 22.6324 51.6935 23.024L53.8858 22.8442C53.9178 23.1511 53.9451 23.4535 53.9674 23.7515C53.9898 24.0495 54.0075 24.3477 54.0205 24.6461C54.0339 24.9538 54.0429 25.2663 54.0474 25.5838C54.0515 25.8919 54.0514 26.2095 54.047 26.5367L49.5293 26.734C49.5003 25.4273 49.4605 24.0884 49.41 22.7173C49.3688 21.3458 49.3197 20.0074 49.2627 18.7019C49.2362 18.0958 49.2106 17.5084 49.1857 16.9396C49.1609 16.3708 49.1322 15.8209 49.0997 15.2898L51.4634 15.1866ZM54.1257 15.1124C54.6539 15.0146 55.1599 14.9411 55.6435 14.892C56.1268 14.8335 56.5409 14.7967 56.8859 14.7817C57.7064 14.7459 58.4666 14.8248 59.1664 15.0184C59.8662 15.2121 60.4898 15.5866 61.0372 16.1419C61.5363 16.662 61.9194 17.3039 62.1863 18.0676C62.4528 18.822 62.6053 19.6422 62.644 20.528C62.6819 21.3952 62.6044 22.188 62.4115 22.9064C62.2187 23.6248 61.9002 24.246 61.4559 24.7699C61.021 25.2933 60.46 25.7102 59.7729 26.0205C59.0857 26.3307 58.2666 26.5066 57.3155 26.5481C57.1011 26.5575 56.751 26.5634 56.2653 26.566C55.789 26.5681 55.2603 26.5491 54.6793 26.5091C54.6699 26.0798 54.6565 25.6646 54.639 25.2637C54.6304 24.853 54.6175 24.4518 54.6004 24.0602C54.5923 23.6588 54.5794 23.2577 54.5619 22.8567C54.5444 22.4558 54.5263 22.0409 54.5076 21.6119C54.4542 20.3904 54.3938 19.2206 54.3263 18.1025C54.2681 16.984 54.2013 15.9873 54.1257 15.1124ZM56.9313 17.1059C56.8381 17.11 56.7497 17.1185 56.6662 17.1315C56.592 17.1441 56.5178 17.1567 56.4436 17.1693C56.4534 17.6079 56.4679 18.0464 56.487 18.4846C56.5058 18.9135 56.5247 19.3471 56.5438 19.7854C56.5532 19.9998 56.5632 20.2283 56.5737 20.4707C56.5937 20.7127 56.6093 20.9643 56.6207 21.2254C56.641 21.4767 56.6615 21.7328 56.6823 21.9934C56.7026 22.2448 56.7176 22.4824 56.7274 22.7061C56.8121 22.7211 56.8967 22.7314 56.981 22.7371C57.0649 22.7334 57.1395 22.7302 57.2048 22.7273C57.5498 22.7123 57.8636 22.6238 58.1461 22.462C58.438 22.2998 58.6856 22.0881 58.8891 21.827C59.1015 21.5562 59.2608 21.2456 59.3669 20.8953C59.4731 20.545 59.5176 20.174 59.5005 19.7824C59.4879 19.4933 59.4325 19.1875 59.3343 18.8648C59.2451 18.5323 59.0966 18.2352 58.889 17.9733C58.6907 17.7111 58.4292 17.4983 58.1044 17.335C57.7886 17.1619 57.3975 17.0856 56.9313 17.1059Z" fill="url(#paint1_linear_6_294)" fill-opacity="0.59"/>
</g>
<defs>
<filter id="filter0_d_6_294" x="0.0998917" y="7.84357" width="40.8834" height="40.9256" filterUnits="userSpaceOnUse" color-interpolation-filters="sRGB">
<feFlood flood-opacity="0" result="BackgroundImageFix"/>
<feColorMatrix in="SourceAlpha" type="matrix" values="0 0 0 0 0 0 0 0 0 0 0 0 0 0 0 0 0 0 127 0" result="hardAlpha"/>
<feMorphology radius="8" operator="erode" in="SourceAlpha" result="effect1_dropShadow_6_294"/>
<feOffset dy="12"/>
<feGaussianBlur stdDeviation="8"/>
<feComposite in2="hardAlpha" operator="out"/>
<feColorMatrix type="matrix" values="0 0 0 0 0.0235294 0 0 0 0 0.0470588 0 0 0 0 0.172549 0 0 0 0.5 0"/>
<feBlend mode="normal" in2="BackgroundImageFix" result="effect1_dropShadow_6_294"/>
<feBlend mode="normal" in="SourceGraphic" in2="effect1_dropShadow_6_294" result="shape"/>
</filter>
<filter id="filter1_d_6_294" x="29.2943" y="14.5417" width="41.602" height="32.8582" filterUnits="userSpaceOnUse" color-interpolation-filters="sRGB">
<feFlood flood-opacity="0" result="BackgroundImageFix"/>
<feColorMatrix in="SourceAlpha" type="matrix" values="0 0 0 0 0 0 0 0 0 0 0 0 0 0 0 0 0 0 127 0" result="hardAlpha"/>
<feMorphology radius="8" operator="erode" in="SourceAlpha" result="effect1_dropShadow_6_294"/>
<feOffset dy="12"/>
<feGaussianBlur stdDeviation="8"/>
<feComposite in2="hardAlpha" operator="out"/>
<feColorMatrix type="matrix" values="0 0 0 0 0.0235294 0 0 0 0 0.0470588 0 0 0 0 0.172549 0 0 0 0.5 0"/>
<feBlend mode="normal" in2="BackgroundImageFix" result="effect1_dropShadow_6_294"/>
<feBlend mode="normal" in="SourceGraphic" in2="effect1_dropShadow_6_294" result="shape"/>
</filter>
<linearGradient id="paint0_linear_6_294" x1="20.2548" y1="2.58188" x2="21.7221" y2="36.1881" gradientUnits="userSpaceOnUse">
<stop stop-color="white"/>
<stop offset="1" stop-color="white" stop-opacity="0"/>
</linearGradient>
<linearGradient id="paint1_linear_6_294" x1="50.1285" y1="10.1189" x2="51.1831" y2="34.2734" gradientUnits="userSpaceOnUse">
<stop stop-color="white"/>
<stop offset="1" stop-color="white" stop-opacity="0"/>
</linearGradient>
</defs>
</svg>
