<svg width="85" height="50" viewBox="0 0 85 50" fill="none" xmlns="http://www.w3.org/2000/svg">
<g filter="url(#filter0_d_6_300)">
<path d="M19.6777 14.135C19.7161 15.0141 19.5894 15.7804 19.2976 16.4337C19.0211 17.0704 18.6539 17.647 18.196 18.1634C17.7374 18.6639 17.2371 19.1262 16.6951 19.5502C16.1524 19.9583 15.6492 20.3566 15.1858 20.7452C14.7223 21.1338 14.3238 21.5436 13.9902 21.9745C13.672 22.3888 13.5081 22.8524 13.4984 23.3653L19.746 22.8523C19.7996 23.3464 19.8539 23.8565 19.9089 24.3826C19.9792 24.8921 20.0255 25.4025 20.0478 25.914C20.0918 26.9211 20.1111 27.9132 20.1057 28.8903L9.55578 29.351L9.35897 24.8433C9.32058 23.9641 9.4233 23.1989 9.66713 22.5476C9.91095 21.8964 10.2305 21.3299 10.6259 20.8482C11.0206 20.3505 11.442 19.9157 11.8902 19.5438C12.3537 19.1552 12.7859 18.784 13.1869 18.4302C13.5871 18.0604 13.9151 17.6857 14.1708 17.3062C14.4265 16.9267 14.5435 16.4892 14.5219 15.9936C14.5079 15.6739 14.4321 15.405 14.2945 15.1868C14.1561 14.9526 13.9799 14.7681 13.7658 14.6333C13.5677 14.4978 13.3474 14.4033 13.1048 14.3499C12.8616 14.2804 12.636 14.2502 12.4282 14.2593C11.8688 14.2837 11.3402 14.467 10.8427 14.809C10.3451 15.151 9.95497 15.5684 9.6722 16.0612C9.62348 15.679 9.58066 15.2485 9.54374 14.7696C9.50682 14.2908 9.47823 13.8196 9.458 13.356C9.43776 12.8924 9.42795 12.4845 9.42858 12.1321C9.42851 11.7638 9.43539 11.3711 9.44922 10.9541C9.65905 10.6246 9.93561 10.3563 10.2789 10.1491C10.6375 9.92529 11.0061 9.74904 11.3849 9.6204C11.7796 9.49106 12.1601 9.40237 12.5264 9.35435C12.9079 9.28965 13.2345 9.25136 13.5063 9.2395C14.0977 9.21368 14.7406 9.26568 15.4349 9.39552C16.1445 9.50868 16.8038 9.75215 17.4127 10.1259C18.0209 10.4838 18.5394 10.9896 18.9683 11.6435C19.3966 12.2815 19.633 13.1119 19.6777 14.135ZM24.2052 13.649C24.1837 13.8902 24.1723 14.179 24.171 14.5153C24.1857 14.851 24.1979 15.1307 24.2076 15.3545C24.2293 15.8501 24.2738 16.3206 24.3413 16.766C24.6895 16.6708 25.0304 16.5918 25.364 16.5292C25.7136 16.4659 26.0562 16.4269 26.3919 16.4123C27.2231 16.376 27.997 16.4943 28.7136 16.7673C29.4301 17.0403 30.0557 17.4294 30.5903 17.9346C31.1248 18.4397 31.5436 19.0461 31.8468 19.7535C32.1652 20.4443 32.3419 21.1893 32.3768 21.9885C32.4131 22.8197 32.2888 23.6419 32.004 24.4551C31.7345 25.2516 31.3176 25.9745 30.7534 26.6237C30.1892 27.273 29.4839 27.8082 28.6375 28.2296C27.8063 28.6342 26.8473 28.8602 25.7603 28.9077C25.4726 28.9203 25.1282 28.9193 24.7272 28.9048C24.3422 28.8895 23.9474 28.8347 23.5429 28.7403C23.1384 28.6458 22.7481 28.5107 22.3721 28.335C22.0114 28.1425 21.7121 27.8913 21.4744 27.5814C21.4236 27.1512 21.3825 26.7606 21.3511 26.4097C21.3358 26.058 21.318 25.6504 21.2978 25.1868C21.2768 24.7073 21.2594 24.3077 21.2454 23.988C21.2474 23.6676 21.2564 23.3228 21.2723 22.9538C21.6567 23.3214 22.1335 23.6049 22.7028 23.8042C23.272 24.0036 23.8763 24.0893 24.5157 24.0614C25.4109 24.0223 26.1135 23.7914 26.6235 23.3688C27.1329 22.9301 27.3729 22.3751 27.3436 21.7038C27.3143 21.0324 27.0198 20.5248 26.4603 20.1809C25.9168 19.8362 25.1734 19.6845 24.2303 19.7257C23.5909 19.7536 23.0113 19.867 22.4915 20.0659C21.971 20.2488 21.5499 20.5074 21.2282 20.8417C21.1917 18.9055 21.1312 16.9703 21.0467 15.0361C21.0056 14.093 20.955 13.1183 20.8951 12.1119C20.8511 11.1049 20.7929 10.1385 20.7204 9.2128L31.0546 8.7616C31.104 9.15982 31.1451 9.5504 31.1778 9.93334C31.2105 10.3163 31.2356 10.7076 31.2531 11.1072C31.2712 11.5228 31.281 11.9307 31.2825 12.3311C31.284 12.7314 31.2778 13.14 31.264 13.557L24.2052 13.649ZM39.071 8.12332C40.126 8.07726 41.0549 8.26092 41.8577 8.67429C42.6765 9.08697 43.3684 9.71338 43.9336 10.5535C44.4981 11.3777 44.9355 12.4076 45.2456 13.6432C45.5711 14.8622 45.7684 16.2629 45.8375 17.8454C45.9806 21.1223 45.539 23.664 44.5128 25.4705C43.502 27.2603 41.9255 28.2019 39.7836 28.2954C38.7126 28.3422 37.7677 28.1592 36.9489 27.7466C36.1301 27.3339 35.4385 26.7155 34.874 25.8913C34.3088 25.0512 33.8639 24.0296 33.5391 22.8266C33.2296 21.607 33.0406 20.2139 32.9722 18.6474C32.8257 15.2906 33.2822 12.7242 34.3417 10.9483C35.4006 9.15641 36.977 8.21475 39.071 8.12332ZM39.5854 22.1062C40.001 22.088 40.3554 21.9525 40.6487 21.6994C40.9572 21.4297 41.2059 21.0745 41.3949 20.6339C41.5992 20.1765 41.7367 19.658 41.8075 19.0784C41.8935 18.4821 41.9219 17.8482 41.8926 17.1769C41.864 16.5215 41.7815 15.9165 41.6452 15.3619C41.5249 14.8066 41.3517 14.3257 41.1258 13.9192C40.8998 13.5127 40.6218 13.1965 40.2916 12.9707C39.9774 12.7442 39.6205 12.6396 39.2209 12.6571C38.8053 12.6752 38.4429 12.8112 38.1337 13.0649C37.8244 13.3186 37.567 13.6582 37.3613 14.0836C37.1557 14.5089 37.0095 15.0118 36.9227 15.5921C36.836 16.1725 36.8072 16.7983 36.8365 17.4697C36.8652 18.1251 36.948 18.738 37.085 19.3086C37.222 19.8792 37.4038 20.3757 37.6305 20.7982C37.8731 21.22 38.1519 21.5522 38.4668 21.7947C38.7969 22.0205 39.1698 22.1243 39.5854 22.1062Z" fill="#FFA800"/>
<path d="M19.6777 14.135C19.7161 15.0141 19.5894 15.7804 19.2976 16.4337C19.0211 17.0704 18.6539 17.647 18.196 18.1634C17.7374 18.6639 17.2371 19.1262 16.6951 19.5502C16.1524 19.9583 15.6492 20.3566 15.1858 20.7452C14.7223 21.1338 14.3238 21.5436 13.9902 21.9745C13.672 22.3888 13.5081 22.8524 13.4984 23.3653L19.746 22.8523C19.7996 23.3464 19.8539 23.8565 19.9089 24.3826C19.9792 24.8921 20.0255 25.4025 20.0478 25.914C20.0918 26.9211 20.1111 27.9132 20.1057 28.8903L9.55578 29.351L9.35897 24.8433C9.32058 23.9641 9.4233 23.1989 9.66713 22.5476C9.91095 21.8964 10.2305 21.3299 10.6259 20.8482C11.0206 20.3505 11.442 19.9157 11.8902 19.5438C12.3537 19.1552 12.7859 18.784 13.1869 18.4302C13.5871 18.0604 13.9151 17.6857 14.1708 17.3062C14.4265 16.9267 14.5435 16.4892 14.5219 15.9936C14.5079 15.6739 14.4321 15.405 14.2945 15.1868C14.1561 14.9526 13.9799 14.7681 13.7658 14.6333C13.5677 14.4978 13.3474 14.4033 13.1048 14.3499C12.8616 14.2804 12.636 14.2502 12.4282 14.2593C11.8688 14.2837 11.3402 14.467 10.8427 14.809C10.3451 15.151 9.95497 15.5684 9.6722 16.0612C9.62348 15.679 9.58066 15.2485 9.54374 14.7696C9.50682 14.2908 9.47823 13.8196 9.458 13.356C9.43776 12.8924 9.42795 12.4845 9.42858 12.1321C9.42851 11.7638 9.43539 11.3711 9.44922 10.9541C9.65905 10.6246 9.93561 10.3563 10.2789 10.1491C10.6375 9.92529 11.0061 9.74904 11.3849 9.6204C11.7796 9.49106 12.1601 9.40237 12.5264 9.35435C12.9079 9.28965 13.2345 9.25136 13.5063 9.2395C14.0977 9.21368 14.7406 9.26568 15.4349 9.39552C16.1445 9.50868 16.8038 9.75215 17.4127 10.1259C18.0209 10.4838 18.5394 10.9896 18.9683 11.6435C19.3966 12.2815 19.633 13.1119 19.6777 14.135ZM24.2052 13.649C24.1837 13.8902 24.1723 14.179 24.171 14.5153C24.1857 14.851 24.1979 15.1307 24.2076 15.3545C24.2293 15.8501 24.2738 16.3206 24.3413 16.766C24.6895 16.6708 25.0304 16.5918 25.364 16.5292C25.7136 16.4659 26.0562 16.4269 26.3919 16.4123C27.2231 16.376 27.997 16.4943 28.7136 16.7673C29.4301 17.0403 30.0557 17.4294 30.5903 17.9346C31.1248 18.4397 31.5436 19.0461 31.8468 19.7535C32.1652 20.4443 32.3419 21.1893 32.3768 21.9885C32.4131 22.8197 32.2888 23.6419 32.004 24.4551C31.7345 25.2516 31.3176 25.9745 30.7534 26.6237C30.1892 27.273 29.4839 27.8082 28.6375 28.2296C27.8063 28.6342 26.8473 28.8602 25.7603 28.9077C25.4726 28.9203 25.1282 28.9193 24.7272 28.9048C24.3422 28.8895 23.9474 28.8347 23.5429 28.7403C23.1384 28.6458 22.7481 28.5107 22.3721 28.335C22.0114 28.1425 21.7121 27.8913 21.4744 27.5814C21.4236 27.1512 21.3825 26.7606 21.3511 26.4097C21.3358 26.058 21.318 25.6504 21.2978 25.1868C21.2768 24.7073 21.2594 24.3077 21.2454 23.988C21.2474 23.6676 21.2564 23.3228 21.2723 22.9538C21.6567 23.3214 22.1335 23.6049 22.7028 23.8042C23.272 24.0036 23.8763 24.0893 24.5157 24.0614C25.4109 24.0223 26.1135 23.7914 26.6235 23.3688C27.1329 22.9301 27.3729 22.3751 27.3436 21.7038C27.3143 21.0324 27.0198 20.5248 26.4603 20.1809C25.9168 19.8362 25.1734 19.6845 24.2303 19.7257C23.5909 19.7536 23.0113 19.867 22.4915 20.0659C21.971 20.2488 21.5499 20.5074 21.2282 20.8417C21.1917 18.9055 21.1312 16.9703 21.0467 15.0361C21.0056 14.093 20.955 13.1183 20.8951 12.1119C20.8511 11.1049 20.7929 10.1385 20.7204 9.2128L31.0546 8.7616C31.104 9.15982 31.1451 9.5504 31.1778 9.93334C31.2105 10.3163 31.2356 10.7076 31.2531 11.1072C31.2712 11.5228 31.281 11.9307 31.2825 12.3311C31.284 12.7314 31.2778 13.14 31.264 13.557L24.2052 13.649ZM39.071 8.12332C40.126 8.07726 41.0549 8.26092 41.8577 8.67429C42.6765 9.08697 43.3684 9.71338 43.9336 10.5535C44.4981 11.3777 44.9355 12.4076 45.2456 13.6432C45.5711 14.8622 45.7684 16.2629 45.8375 17.8454C45.9806 21.1223 45.539 23.664 44.5128 25.4705C43.502 27.2603 41.9255 28.2019 39.7836 28.2954C38.7126 28.3422 37.7677 28.1592 36.9489 27.7466C36.1301 27.3339 35.4385 26.7155 34.874 25.8913C34.3088 25.0512 33.8639 24.0296 33.5391 22.8266C33.2296 21.607 33.0406 20.2139 32.9722 18.6474C32.8257 15.2906 33.2822 12.7242 34.3417 10.9483C35.4006 9.15641 36.977 8.21475 39.071 8.12332ZM39.5854 22.1062C40.001 22.088 40.3554 21.9525 40.6487 21.6994C40.9572 21.4297 41.2059 21.0745 41.3949 20.6339C41.5992 20.1765 41.7367 19.658 41.8075 19.0784C41.8935 18.4821 41.9219 17.8482 41.8926 17.1769C41.864 16.5215 41.7815 15.9165 41.6452 15.3619C41.5249 14.8066 41.3517 14.3257 41.1258 13.9192C40.8998 13.5127 40.6218 13.1965 40.2916 12.9707C39.9774 12.7442 39.6205 12.6396 39.2209 12.6571C38.8053 12.6752 38.4429 12.8112 38.1337 13.0649C37.8244 13.3186 37.567 13.6582 37.3613 14.0836C37.1557 14.5089 37.0095 15.0118 36.9227 15.5921C36.836 16.1725 36.8072 16.7983 36.8365 17.4697C36.8652 18.1251 36.948 18.738 37.085 19.3086C37.222 19.8792 37.4038 20.3757 37.6305 20.7982C37.8731 21.22 38.1519 21.5522 38.4668 21.7947C38.7969 22.0205 39.1698 22.1243 39.5854 22.1062Z" fill="url(#paint0_linear_6_300)" fill-opacity="0.59"/>
</g>
<g filter="url(#filter1_d_6_300)">
<path d="M59.8165 15.6936L62.1383 15.5923L60.9314 27.1079L58.1761 27.2282L56.6918 21.1551L55.7424 27.3344L53.0569 27.4517L50.7951 16.0875L53.1169 15.9861L54.3394 23.7662L55.5968 15.976L57.3834 15.8139L59.3047 23.5494L59.8165 15.6936ZM64.9569 15.4692C64.9847 16.7479 65.0074 17.8025 65.025 18.6332C65.0519 19.4635 65.0731 20.1633 65.0886 20.7325C65.1037 21.2923 65.1196 21.7634 65.1363 22.1457C65.153 22.528 65.1699 22.915 65.187 23.3066L67.3793 23.1268C67.4113 23.4337 67.4386 23.7361 67.4609 24.0341C67.4833 24.3321 67.501 24.6303 67.514 24.9287C67.5274 25.2364 67.5364 25.5489 67.5409 25.8664C67.545 26.1745 67.5449 26.4921 67.5405 26.8193L63.0228 27.0165C62.9938 25.7099 62.954 24.371 62.9035 22.9999C62.8623 21.6284 62.8132 20.29 62.7562 18.9845C62.7297 18.3784 62.7041 17.791 62.6792 17.2222C62.6544 16.6534 62.6257 16.1035 62.5932 15.5724L64.9569 15.4692ZM67.6192 15.395C68.1474 15.2972 68.6534 15.2237 69.137 15.1746C69.6203 15.1161 70.0344 15.0793 70.3794 15.0643C71.1999 15.0285 71.9601 15.1074 72.6599 15.301C73.3597 15.4947 73.9833 15.8692 74.5307 16.4245C75.0298 16.9446 75.4129 17.5865 75.6798 18.3502C75.9463 19.1046 76.0988 19.9248 76.1375 20.8106C76.1754 21.6778 76.0979 22.4706 75.905 23.189C75.7122 23.9074 75.3936 24.5286 74.9494 25.0524C74.5145 25.5759 73.9535 25.9928 73.2664 26.303C72.5792 26.6133 71.7601 26.7892 70.809 26.8307C70.5946 26.8401 70.2445 26.846 69.7588 26.8486C69.2825 26.8507 68.7538 26.8317 68.1728 26.7917C68.1634 26.3624 68.15 25.9472 68.1325 25.5463C68.1239 25.1356 68.111 24.7344 68.0939 24.3428C68.0857 23.9414 68.0729 23.5403 68.0554 23.1393C68.0379 22.7384 68.0198 22.3234 68.001 21.8945C67.9477 20.673 67.8873 19.5032 67.8198 18.3851C67.7616 17.2666 67.6947 16.2699 67.6192 15.395ZM70.4248 17.3885C70.3316 17.3926 70.2432 17.4011 70.1597 17.4141C70.0855 17.4267 70.0113 17.4393 69.9371 17.4518C69.9469 17.8905 69.9614 18.329 69.9805 18.7672C69.9992 19.1961 70.0182 19.6297 70.0373 20.068C70.0467 20.2824 70.0567 20.5109 70.0672 20.7533C70.0871 20.9953 70.1028 21.2469 70.1142 21.508C70.1345 21.7593 70.155 22.0153 70.1758 22.276C70.1961 22.5274 70.2111 22.7649 70.2209 22.9887C70.3056 23.0037 70.3902 23.014 70.4745 23.0197C70.5584 23.016 70.633 23.0128 70.6983 23.0099C71.0433 22.9949 71.357 22.9064 71.6396 22.7446C71.9315 22.5824 72.1791 22.3707 72.3826 22.1096C72.595 21.8387 72.7543 21.5282 72.8604 21.1779C72.9666 20.8276 73.0111 20.4566 72.994 20.065C72.9814 19.7759 72.926 19.4701 72.8278 19.1474C72.7386 18.8149 72.5901 18.5178 72.3825 18.2559C72.1842 17.9937 71.9227 17.7809 71.5979 17.6176C71.2821 17.4445 70.891 17.3682 70.4248 17.3885Z" fill="#FFA800"/>
<path d="M59.8165 15.6936L62.1383 15.5923L60.9314 27.1079L58.1761 27.2282L56.6918 21.1551L55.7424 27.3344L53.0569 27.4517L50.7951 16.0875L53.1169 15.9861L54.3394 23.7662L55.5968 15.976L57.3834 15.8139L59.3047 23.5494L59.8165 15.6936ZM64.9569 15.4692C64.9847 16.7479 65.0074 17.8025 65.025 18.6332C65.0519 19.4635 65.0731 20.1633 65.0886 20.7325C65.1037 21.2923 65.1196 21.7634 65.1363 22.1457C65.153 22.528 65.1699 22.915 65.187 23.3066L67.3793 23.1268C67.4113 23.4337 67.4386 23.7361 67.4609 24.0341C67.4833 24.3321 67.501 24.6303 67.514 24.9287C67.5274 25.2364 67.5364 25.5489 67.5409 25.8664C67.545 26.1745 67.5449 26.4921 67.5405 26.8193L63.0228 27.0165C62.9938 25.7099 62.954 24.371 62.9035 22.9999C62.8623 21.6284 62.8132 20.29 62.7562 18.9845C62.7297 18.3784 62.7041 17.791 62.6792 17.2222C62.6544 16.6534 62.6257 16.1035 62.5932 15.5724L64.9569 15.4692ZM67.6192 15.395C68.1474 15.2972 68.6534 15.2237 69.137 15.1746C69.6203 15.1161 70.0344 15.0793 70.3794 15.0643C71.1999 15.0285 71.9601 15.1074 72.6599 15.301C73.3597 15.4947 73.9833 15.8692 74.5307 16.4245C75.0298 16.9446 75.4129 17.5865 75.6798 18.3502C75.9463 19.1046 76.0988 19.9248 76.1375 20.8106C76.1754 21.6778 76.0979 22.4706 75.905 23.189C75.7122 23.9074 75.3936 24.5286 74.9494 25.0524C74.5145 25.5759 73.9535 25.9928 73.2664 26.303C72.5792 26.6133 71.7601 26.7892 70.809 26.8307C70.5946 26.8401 70.2445 26.846 69.7588 26.8486C69.2825 26.8507 68.7538 26.8317 68.1728 26.7917C68.1634 26.3624 68.15 25.9472 68.1325 25.5463C68.1239 25.1356 68.111 24.7344 68.0939 24.3428C68.0857 23.9414 68.0729 23.5403 68.0554 23.1393C68.0379 22.7384 68.0198 22.3234 68.001 21.8945C67.9477 20.673 67.8873 19.5032 67.8198 18.3851C67.7616 17.2666 67.6947 16.2699 67.6192 15.395ZM70.4248 17.3885C70.3316 17.3926 70.2432 17.4011 70.1597 17.4141C70.0855 17.4267 70.0113 17.4393 69.9371 17.4518C69.9469 17.8905 69.9614 18.329 69.9805 18.7672C69.9992 19.1961 70.0182 19.6297 70.0373 20.068C70.0467 20.2824 70.0567 20.5109 70.0672 20.7533C70.0871 20.9953 70.1028 21.2469 70.1142 21.508C70.1345 21.7593 70.155 22.0153 70.1758 22.276C70.1961 22.5274 70.2111 22.7649 70.2209 22.9887C70.3056 23.0037 70.3902 23.014 70.4745 23.0197C70.5584 23.016 70.633 23.0128 70.6983 23.0099C71.0433 22.9949 71.357 22.9064 71.6396 22.7446C71.9315 22.5824 72.1791 22.3707 72.3826 22.1096C72.595 21.8387 72.7543 21.5282 72.8604 21.1779C72.9666 20.8276 73.0111 20.4566 72.994 20.065C72.9814 19.7759 72.926 19.4701 72.8278 19.1474C72.7386 18.8149 72.5901 18.5178 72.3825 18.2559C72.1842 17.9937 71.9227 17.7809 71.5979 17.6176C71.2821 17.4445 70.891 17.3682 70.4248 17.3885Z" fill="url(#paint1_linear_6_300)" fill-opacity="0.59"/>
</g>
<defs>
<filter id="filter0_d_6_300" x="0.686874" y="7.84692" width="53.5945" height="41.7678" filterUnits="userSpaceOnUse" color-interpolation-filters="sRGB">
<feFlood flood-opacity="0" result="BackgroundImageFix"/>
<feColorMatrix in="SourceAlpha" type="matrix" values="0 0 0 0 0 0 0 0 0 0 0 0 0 0 0 0 0 0 127 0" result="hardAlpha"/>
<feMorphology radius="8" operator="erode" in="SourceAlpha" result="effect1_dropShadow_6_300"/>
<feOffset dy="12"/>
<feGaussianBlur stdDeviation="8"/>
<feComposite in2="hardAlpha" operator="out"/>
<feColorMatrix type="matrix" values="0 0 0 0 0.0235294 0 0 0 0 0.0470588 0 0 0 0 0.172549 0 0 0 0.5 0"/>
<feBlend mode="normal" in2="BackgroundImageFix" result="effect1_dropShadow_6_300"/>
<feBlend mode="normal" in="SourceGraphic" in2="effect1_dropShadow_6_300" result="shape"/>
</filter>
<filter id="filter1_d_6_300" x="42.7878" y="14.8243" width="41.6019" height="32.8582" filterUnits="userSpaceOnUse" color-interpolation-filters="sRGB">
<feFlood flood-opacity="0" result="BackgroundImageFix"/>
<feColorMatrix in="SourceAlpha" type="matrix" values="0 0 0 0 0 0 0 0 0 0 0 0 0 0 0 0 0 0 127 0" result="hardAlpha"/>
<feMorphology radius="8" operator="erode" in="SourceAlpha" result="effect1_dropShadow_6_300"/>
<feOffset dy="12"/>
<feGaussianBlur stdDeviation="8"/>
<feComposite in2="hardAlpha" operator="out"/>
<feColorMatrix type="matrix" values="0 0 0 0 0.0235294 0 0 0 0 0.0470588 0 0 0 0 0.172549 0 0 0 0.5 0"/>
<feBlend mode="normal" in2="BackgroundImageFix" result="effect1_dropShadow_6_300"/>
<feBlend mode="normal" in="SourceGraphic" in2="effect1_dropShadow_6_300" result="shape"/>
</filter>
<linearGradient id="paint0_linear_6_300" x1="27.4691" y1="3.1386" x2="28.9363" y2="36.7448" gradientUnits="userSpaceOnUse">
<stop stop-color="white"/>
<stop offset="1" stop-color="white" stop-opacity="0"/>
</linearGradient>
<linearGradient id="paint1_linear_6_300" x1="63.622" y1="10.4015" x2="64.6766" y2="34.556" gradientUnits="userSpaceOnUse">
<stop stop-color="white"/>
<stop offset="1" stop-color="white" stop-opacity="0"/>
</linearGradient>
</defs>
</svg>
