<svg width="16" height="16" viewBox="0 0 16 16" fill="none" xmlns="http://www.w3.org/2000/svg">
<path d="M10.8208 5.80923C12.3924 5.80923 13.6667 7.05537 13.6667 8.59234V11.8836C13.6667 13.4205 12.3924 14.6667 10.8208 14.6667H5.17919C3.60757 14.6667 2.33333 13.4205 2.33333 11.8836V8.59234C2.33333 7.05537 3.60757 5.80923 5.17919 5.80923H10.8208ZM7.99661 8.92292C7.67144 8.92292 7.40725 9.18129 7.40725 9.49928V10.97C7.40725 11.2946 7.67144 11.553 7.99661 11.553C8.32855 11.553 8.59274 11.2946 8.59274 10.97V9.49928C8.59274 9.18129 8.32855 8.92292 7.99661 8.92292Z" fill="white"/>
<path opacity="0.4" d="M11.6819 4.93064V5.91112C11.4448 5.84488 11.1941 5.81175 10.9367 5.81175H10.4964V4.93064C10.4964 3.5858 9.37862 2.49269 8.00345 2.49269C6.62827 2.49269 5.51052 3.57917 5.50375 4.9174V5.81175H5.0702C4.806 5.81175 4.55535 5.84488 4.31825 5.91775V4.93064C4.32503 2.94319 5.97117 1.33334 7.9899 1.33334C10.0357 1.33334 11.6819 2.94319 11.6819 4.93064Z" fill="white"/>
</svg>
