<svg width="17" height="18" viewBox="0 0 17 18" fill="none" xmlns="http://www.w3.org/2000/svg">
<path opacity="0.4" d="M16.6665 8.9999C16.6665 13.6032 12.9356 17.3332 8.33312 17.3332C3.73062 17.3332 -0.000213623 13.6032 -0.000213623 8.9999C-0.000213623 4.39823 3.73062 0.666565 8.33312 0.666565C12.9356 0.666565 16.6665 4.39823 16.6665 8.9999Z" fill="#9CA6ED"/>
<path d="M11.3112 12.1786C11.202 12.1786 11.092 12.1503 10.9912 12.0911L7.71954 10.1395C7.53121 10.0261 7.41537 9.82198 7.41537 9.60198V5.39615C7.41537 5.05115 7.69537 4.77115 8.04037 4.77115C8.38537 4.77115 8.66537 5.05115 8.66537 5.39615V9.24698L11.632 11.0161C11.9279 11.1936 12.0254 11.577 11.8487 11.8736C11.7312 12.0695 11.5237 12.1786 11.3112 12.1786Z" fill="#9CA6ED"/>
</svg>
