<svg width="24" height="24" viewBox="0 0 24 24" fill="none" xmlns="http://www.w3.org/2000/svg">
<path d="M10.5 19C15.1944 19 19 15.1944 19 10.5C19 5.80558 15.1944 2 10.5 2C5.80558 2 2 5.80558 2 10.5C2 15.1944 5.80558 19 10.5 19Z" fill="#9CA6ED"/>
<path opacity="0.4" d="M20.5604 21.9516C20.1976 21.9399 19.8526 21.7912 19.5946 21.5353L17.3827 18.9599C16.9085 18.528 16.8697 17.7938 17.2958 17.314C17.4952 17.113 17.7663 17 18.0492 17C18.332 17 18.6031 17.113 18.8025 17.314L21.5843 19.5312C21.985 19.9397 22.1086 20.5462 21.9 21.0795C21.6913 21.6129 21.1893 21.9734 20.6184 22L20.5604 21.9516Z" fill="#9CA6ED"/>
</svg>
